<?xml version="1.0" encoding="UTF-8" standalone="no"?><!DOCTYPE svg PUBLIC "-//W3C//DTD SVG 1.1//EN" "http://www.w3.org/Graphics/SVG/1.1/DTD/svg11.dtd"><svg width="100%" height="100%" viewBox="0 0 180 60" version="1.1" xmlns="http://www.w3.org/2000/svg" xmlns:xlink="http://www.w3.org/1999/xlink" xml:space="preserve" xmlns:serif="http://www.serif.com/" style="fill-rule:evenodd;clip-rule:evenodd;stroke-linejoin:round;stroke-miterlimit:1.41421;"><g><rect x="0" y="0" width="62.022" height="60" style="fill:none;"/><path d="M5.715,1.161c-0.036,0.075 -1.595,0.97 -1.631,1.054c-1.89,4.354 -2.617,19.463 -2.824,23.882c-0.06,1.269 1.397,-0.038 3.187,2.088c0.32,0.379 2.155,6.103 2.689,8.168c0.592,2.284 0.817,3.358 1.403,4.743c0.341,0.806 1.38,1.759 2.143,1.515c0.763,-0.243 1.793,-1.866 2.435,-2.975c1.428,-2.468 4.432,-8.469 6.136,-11.83c1.4,-2.759 2.971,-6.721 4.091,-8.333c0.561,-0.807 1.958,-2.049 2.63,-1.332c1.3,1.389 3.839,7.057 5.17,9.665c1.002,1.964 1.828,5.118 2.817,5.986c0.805,0.706 2.498,0.095 3.117,-0.78c1.331,-1.883 3.62,-8.749 4.87,-10.519c0.506,-0.716 1.996,-0.704 2.63,-0.098c0.925,0.886 1.753,4.51 2.922,5.411c1.079,0.833 2.739,0.184 4.09,0c1.851,-0.252 5.44,-1.197 7.014,-1.514c0.802,-0.162 2.747,0.362 2.425,-0.39c-0.488,-1.136 -2.964,-4.984 -5.347,-6.429c-4.982,-3.019 -17.379,-8.814 -24.538,-11.688c-5.951,-2.388 -14.178,-4.448 -18.417,-5.552c-2.288,-0.595 -5.988,-3.203 -7.012,-1.072Z" style="fill:#cecea5;"/><path d="M1.26,26.537c0.01,-0.979 2.191,0.403 2.646,1.269c1.407,2.68 4.281,12.544 5.798,14.805c0.655,0.977 2.703,-0.227 3.304,-1.238c1.714,-2.887 5.049,-12.211 6.981,-16.083c1.267,-2.538 3.486,-8.561 5.771,-7.149c2.287,1.413 5.907,12.97 7.943,15.626c0.635,0.829 2.464,1.127 3.117,0.312c1.393,-1.735 3.834,-8.852 5.236,-10.722c0.644,-0.858 2.343,-1.169 3.18,-0.498c1.101,0.883 1.558,5.215 3.428,5.797c1.87,0.582 5.732,-1.891 7.793,-2.306c1.495,-0.302 5.057,-1.633 4.572,-0.187c-0.489,1.454 -4.373,6.614 -7.502,8.914c-5.105,3.75 -15.335,9.745 -23.128,13.589c-7.609,3.754 -19.158,7.875 -23.625,9.475c-0.999,0.358 -2.997,1.17 -3.18,0.125c-0.919,-5.267 -2.386,-26.653 -2.334,-31.729Z" style="fill:#3997da;"/><path d="M6.916,0c5.582,0.046 11.104,1.989 16.589,3.789c11.768,3.861 23.68,8.32 33.436,15.555c2.558,1.897 5.406,4.199 5.243,7.123c-0.189,3.366 -3.623,5.968 -6.497,8.276c-11.053,8.876 -24.091,15.434 -37.189,21.031c-4.14,1.769 -8.313,3.774 -12.736,4.2c-1.725,0.166 -2.977,-0.405 -3.444,-3.14c-2.269,-13.282 -2.768,-26.988 -1.949,-40.181c0.327,-5.267 0.628,-10.796 2.948,-15.261c0,0 0.221,-0.371 0.472,-0.589c0.853,-0.743 2.089,-0.805 3.127,-0.803Zm-0.142,2.322c-0.679,0.008 -1.376,0.097 -1.506,0.354c-1.84,3.77 -2.134,8.171 -2.468,12.488c-0.9,11.652 -0.377,23.426 0.95,35.099c0.283,2.481 0.616,4.96 1.08,7.414c1.639,0.154 3.371,-0.532 5.072,-1.085c11.466,-3.729 22.291,-9.537 32.628,-15.736c5.76,-3.453 11.882,-6.923 16.009,-12.001c0.964,-1.187 1.66,-2.663 0.804,-3.998c-1.545,-2.413 -4.187,-4.046 -6.674,-5.606c-11.317,-7.1 -24.241,-11.992 -36.811,-15.326c-2.96,-0.785 -5.993,-1.578 -8.954,-1.603c-0.043,0 -0.087,0 -0.13,0Z" style="fill-rule:nonzero;"/><path d="M25.177,17.271c1.997,0.07 3.032,2.207 3.762,3.64c2.055,4.03 2.68,8.839 5.404,12.401c0.068,0.09 0.141,0.177 0.219,0.258c0.038,0.039 0.076,0.077 0.117,0.112c2.077,1.792 5.416,-15.656 10.017,-11.731c1.622,1.383 2.031,3.958 3.717,5.432c1.294,1.132 3.146,-0.328 4.342,-0.905c2.448,-1.162 5.203,-1.054 8.266,-1.079c0,0 1.615,0.978 0.428,1.633c-1.602,0.885 -4.616,-0.323 -7.064,0.633c-0.428,0.167 -0.844,0.364 -1.255,0.569c-1.512,0.766 -3.1,1.789 -4.798,1.125c-2.703,-1.058 -3.09,-4.884 -4.847,-6.146c-1.02,-0.733 -2.549,3.698 -4.114,7.129c-1.181,2.562 -2.626,5.975 -5.092,5.103c-2.094,-0.741 -2.578,-3.17 -3.333,-5.021c-1.375,-3.374 -2.299,-6.946 -4.293,-10.014c-0.55,-0.846 -1.378,-1.742 -2.14,-1.069c-1.356,1.196 -2.124,3.001 -2.971,4.74c-2.836,5.828 -4.507,12.354 -8.329,17.521c-1.003,1.356 -2.82,2.693 -4.435,1.189c-3.005,-2.797 -2.884,-8.217 -4.607,-13.407c-0.441,-1.329 -1.655,-2.307 -2.931,-2.335c0,0 -1.583,-1.027 -0.377,-1.646c1.565,-0.802 4.251,1.293 4.961,3.433c1.343,4.045 1.473,8.655 3.746,12.191c0.365,0.568 0.952,0.911 1.591,0.3c1.407,-1.345 2.218,-3.292 3.095,-5.139c2.633,-5.548 4.347,-11.596 7.848,-16.673c0.778,-1.126 1.587,-2.246 3.073,-2.244Z" style="fill-rule:nonzero;"/><path d="M11.329,16.13l-3.314,0l-0.579,1.873l-2.583,0l3.678,-10.029l2.274,0l3.706,10.029l-2.597,0l-0.585,-1.873Zm-2.735,-1.867l2.156,0l-1.082,-3.479l-1.074,3.479Z" style="fill:#3997da;fill-rule:nonzero;"/><path d="M10.834,7.758c0.122,0.025 0.129,0.036 0.175,0.14l3.706,10.03c0.044,0.147 -0.049,0.283 -0.204,0.293l-2.597,0c-0.139,-0.009 -0.161,-0.03 -0.208,-0.153l-0.538,-1.72l-2.993,0l-0.531,1.72c-0.049,0.13 -0.076,0.145 -0.208,0.153l-2.583,0c-0.153,-0.01 -0.248,-0.144 -0.204,-0.292l3.678,-10.03c0.056,-0.125 0.077,-0.134 0.204,-0.143c0.768,0 1.537,-0.05 2.303,0.002Zm-2.151,0.433l-3.518,9.595l2.111,0l0.54,-1.746c0.061,-0.113 0.079,-0.12 0.199,-0.128l3.314,0c0.138,0.009 0.16,0.03 0.207,0.153l0.538,1.721l2.125,0l-3.546,-9.595c-0.656,0 -1.313,0 -1.97,0Zm1.028,2.38c0.12,0.033 0.138,0.078 0.165,0.149l1.082,3.478c0.034,0.145 -0.059,0.273 -0.208,0.283l-2.156,0c-0.149,-0.01 -0.243,-0.137 -0.209,-0.282l1.075,-3.479c0.057,-0.149 0.063,-0.174 0.251,-0.149Zm-0.822,3.474l1.565,0l-0.785,-2.525c-0.26,0.842 -0.52,1.683 -0.78,2.525Z" style="fill-rule:nonzero;"/><path d="M22.792,14.607c-0.032,0.699 -0.221,1.315 -0.565,1.85c-0.344,0.535 -0.828,0.95 -1.45,1.243c-0.623,0.294 -1.333,0.441 -2.132,0.441c-1.318,0 -2.356,-0.429 -3.114,-1.288c-0.758,-0.859 -1.137,-2.071 -1.137,-3.637l0,-0.496c0,-0.983 0.171,-1.843 0.514,-2.58c0.342,-0.737 0.834,-1.306 1.477,-1.708c0.643,-0.402 1.387,-0.603 2.232,-0.603c1.217,0 2.196,0.32 2.935,0.961c0.739,0.64 1.159,1.523 1.26,2.649l-2.41,0c-0.019,-0.611 -0.173,-1.05 -0.462,-1.316c-0.29,-0.267 -0.73,-0.399 -1.323,-0.399c-0.602,0 -1.042,0.224 -1.323,0.674c-0.279,0.451 -0.427,1.169 -0.44,2.156l0,0.71c0,1.07 0.134,1.835 0.403,2.294c0.268,0.459 0.731,0.689 1.388,0.689c0.555,0 0.98,-0.131 1.274,-0.393c0.294,-0.262 0.45,-0.677 0.469,-1.247l2.404,0Z" style="fill:#3997da;fill-rule:nonzero;"/><path d="M22.85,14.397c0.256,0.091 0.158,0.275 0.145,0.424c-0.097,1.005 -0.559,1.967 -1.346,2.595c-1.962,1.565 -5.3,1.267 -6.689,-0.969c-0.919,-1.479 -0.955,-3.387 -0.682,-4.983c0.368,-2.154 2.27,-3.946 4.629,-3.846c2.065,0.087 3.915,1.616 4.122,3.8c0,0 -0.02,0.226 -0.217,0.238l-2.41,0c-0.297,-0.019 -0.215,-0.229 -0.231,-0.418c-0.032,-0.323 -0.107,-0.67 -0.337,-0.913c-0.51,-0.54 -1.545,-0.592 -2.122,-0.089c-0.75,0.654 -0.641,1.917 -0.641,3.028c0.006,1.316 0.196,2.857 1.762,2.759c0.371,-0.023 0.773,-0.124 1.025,-0.416c0.293,-0.34 0.315,-1.036 0.315,-1.036c0.025,-0.106 0.071,-0.172 0.215,-0.181l2.404,0c0.029,0.002 0.029,0.001 0.058,0.007Zm-4.309,-6.35c-1.215,0.028 -2.395,0.568 -3.089,1.575c-0.789,1.143 -0.896,2.611 -0.83,4.015c0.064,1.361 0.519,2.811 1.697,3.631c2.121,1.475 5.911,0.468 6.237,-2.425l-1.964,-0.018c-0.039,0.424 -0.182,0.864 -0.496,1.162c-0.762,0.726 -2.166,0.704 -2.847,-0.068c-0.964,-1.093 -0.805,-3.009 -0.502,-4.616c0.176,-0.937 0.92,-1.826 1.986,-1.796c0.508,0.015 1.053,0.132 1.418,0.518c0.367,0.389 0.456,1.196 0.456,1.196l1.961,0c-0.175,-1.312 -1.072,-2.503 -2.329,-2.93c-0.504,-0.172 -1.036,-0.237 -1.567,-0.244c-0.066,0 -0.065,0 -0.131,0Z" style="fill-rule:nonzero;"/><g><path d="M18.603,40.844l0,-4.603l3.329,0l0,0.543l-2.72,0l0,1.41l2.547,0l0,0.54l-2.547,0l0,1.567l2.826,0l0,0.543l-3.435,0Z" style="fill:#fff;fill-rule:nonzero;"/><path d="M21.944,36.148c0.208,0.042 0.216,0.714 -0.012,0.729l-2.626,0l0,1.224l2.453,0c0.2,0.013 0.208,0.712 0,0.726l-2.453,0l0,1.381l2.732,0c0.202,0.013 0.228,0.686 0.013,0.728c-1.147,0.076 -2.299,0.001 -3.448,0.001c-0.048,-0.003 -0.083,-0.036 -0.092,-0.081c-0.101,-1.535 -0.001,-3.077 -0.001,-4.615c0.003,-0.045 0.033,-0.083 0.081,-0.093c1.115,-0.073 2.238,-0.073 3.353,0Zm-3.248,0.186l0,4.417l3.249,0l0,-0.357l-2.733,0c-0.045,-0.003 -0.082,-0.033 -0.092,-0.081c-0.034,-0.525 -0.001,-1.053 -0.001,-1.579c0.004,-0.054 0.044,-0.09 0.093,-0.093l2.454,0l0,-0.354l-2.454,0c-0.21,-0.014 -0.093,-0.887 -0.093,-1.503c0.004,-0.054 0.044,-0.09 0.093,-0.093l2.627,0l0,-0.357c-1.048,0 -2.095,0 -3.143,0Z" style="fill-rule:nonzero;"/><path d="M22.808,40.844l0,-3.335l0.508,0l0,0.474c0.245,-0.366 0.599,-0.549 1.062,-0.549c0.201,0 0.385,0.036 0.554,0.108c0.169,0.073 0.295,0.167 0.378,0.284c0.084,0.118 0.143,0.257 0.176,0.418c0.021,0.105 0.032,0.288 0.032,0.55l0,2.05l-0.566,0l0,-2.028c0,-0.231 -0.022,-0.403 -0.066,-0.517c-0.043,-0.114 -0.121,-0.205 -0.233,-0.273c-0.112,-0.068 -0.244,-0.102 -0.395,-0.102c-0.24,0 -0.448,0.076 -0.623,0.229c-0.175,0.153 -0.262,0.443 -0.262,0.87l0,1.821l-0.565,0Z" style="fill:#fff;fill-rule:nonzero;"/><path d="M23.339,37.419c0.218,0.068 -0.104,0.439 0.181,0.202c0.698,-0.543 1.919,-0.206 2.062,0.628c0.126,0.735 0.082,1.708 0.028,2.606c-0.036,0.196 -0.715,0.191 -0.75,0c-0.059,-0.978 0.183,-2.244 -0.124,-2.635c-0.287,-0.366 -1.041,-0.216 -1.201,0.268c-0.22,0.668 -0.02,1.549 -0.07,2.367c-0.036,0.196 -0.715,0.191 -0.75,0c-0.067,-1.117 -0.067,-2.24 0,-3.357c0.027,-0.146 0.37,-0.126 0.624,-0.079Zm0.981,0.413c0.446,0.033 0.722,0.463 0.726,0.983l0,1.936l0.378,0c0,-1.283 0.302,-2.821 -0.588,-3.147c-0.527,-0.192 -1.039,0.12 -1.467,0.456c-0.202,0.123 -0.146,-0.458 -0.146,-0.458l-0.322,0l0,3.149l0.379,0c0,-1.208 -0.461,-2.984 1.04,-2.919Z" style="fill-rule:nonzero;"/><path d="M28.667,39.77l0.584,0.072c-0.092,0.342 -0.263,0.606 -0.512,0.795c-0.249,0.188 -0.567,0.282 -0.954,0.282c-0.488,0 -0.875,-0.15 -1.161,-0.45c-0.285,-0.301 -0.428,-0.722 -0.428,-1.264c0,-0.561 0.144,-0.996 0.433,-1.306c0.289,-0.31 0.664,-0.465 1.124,-0.465c0.446,0 0.81,0.152 1.093,0.455c0.283,0.304 0.424,0.731 0.424,1.281c0,0.034 -0.001,0.084 -0.003,0.151l-2.487,0c0.021,0.366 0.124,0.647 0.311,0.842c0.186,0.194 0.418,0.292 0.697,0.292c0.207,0 0.384,-0.055 0.531,-0.164c0.146,-0.108 0.262,-0.282 0.348,-0.521Zm-1.856,-0.914l1.862,0c-0.025,-0.28 -0.096,-0.49 -0.213,-0.631c-0.18,-0.217 -0.414,-0.326 -0.7,-0.326c-0.26,0 -0.478,0.087 -0.655,0.26c-0.177,0.174 -0.275,0.406 -0.294,0.697Z" style="fill:#fff;fill-rule:nonzero;"/><path d="M27.797,37.341c0.93,0.03 1.592,0.912 1.563,1.983c-0.007,0.08 -0.042,0.087 -0.093,0.09l-2.386,0c0.086,0.768 1.175,1.501 1.703,0.313c0.033,-0.054 0.049,-0.048 0.083,-0.05c0.384,0.024 0.991,-0.224 0.499,0.616c-0.533,0.909 -2.122,1.003 -2.764,0.046c-0.751,-1.118 -0.136,-3.014 1.395,-2.998Zm-0.085,0.187c-0.395,0.012 -0.781,0.168 -1.04,0.462c-0.644,0.731 -0.586,2.047 0.238,2.599c0.733,0.491 1.872,0.255 2.205,-0.624c0,0 -0.387,-0.093 -0.387,-0.093c-0.089,0.219 -0.109,0.224 -0.159,0.294c-0.365,0.504 -1.239,0.501 -1.635,-0.046c-0.244,-0.338 -0.346,-0.881 -0.154,-0.892l2.396,0c0.01,-0.765 -0.425,-1.649 -1.344,-1.699c-0.04,-0.002 -0.08,-0.002 -0.12,-0.001Zm0.077,0.278c0.542,0.02 1.018,0.536 0.977,1.063c-0.009,0.043 -0.038,0.072 -0.082,0.08c-0.626,0.037 -1.257,0.037 -1.884,0c-0.347,-0.062 0.093,-1.154 0.989,-1.143Zm-0.052,0.186c-0.417,0.013 -0.76,0.353 -0.823,0.771c0,0 1.655,0 1.655,0c-0.15,-0.984 -0.719,-0.772 -0.832,-0.771Z" style="fill-rule:nonzero;"/><path d="M29.955,40.844l0,-3.335l0.508,0l0,0.506c0.13,-0.237 0.25,-0.393 0.36,-0.468c0.11,-0.075 0.231,-0.113 0.362,-0.113c0.191,0 0.385,0.061 0.581,0.182l-0.194,0.524c-0.139,-0.081 -0.277,-0.122 -0.415,-0.122c-0.123,0 -0.234,0.037 -0.333,0.111c-0.098,0.075 -0.168,0.178 -0.21,0.31c-0.063,0.201 -0.094,0.421 -0.094,0.659l0,1.746l-0.565,0Z" style="fill:#fff;fill-rule:nonzero;"/><path d="M30.485,37.419c0.19,0.059 -0.092,0.426 0.187,0.134c0.386,-0.373 1.221,-0.109 1.185,0.085c-0.096,0.312 -0.121,0.675 -0.427,0.534c-0.066,-0.028 -0.134,-0.049 -0.205,-0.057c-0.054,-0.006 -0.109,-0.005 -0.162,0.005c-0.684,0.138 -0.379,1.549 -0.451,2.735c-0.036,0.196 -0.715,0.191 -0.75,0c-0.068,-1.117 -0.068,-2.24 0,-3.357c0.027,-0.146 0.37,-0.126 0.623,-0.079Zm0.731,0.508c0.106,0.01 0.208,0.037 0.305,0.082l0.131,-0.352c-0.075,-0.042 -0.156,-0.076 -0.239,-0.098c-0.544,-0.15 -1.022,0.809 -1.043,0.456l0,-0.413l-0.322,0l0,3.149l0.379,0c0,-1.237 -0.23,-2.88 0.789,-2.824Z" style="fill-rule:nonzero;"/><path d="M31.999,41.12l0.549,0.082c0.023,0.17 0.087,0.293 0.192,0.371c0.14,0.104 0.332,0.157 0.574,0.157c0.262,0 0.464,-0.053 0.606,-0.157c0.143,-0.105 0.239,-0.252 0.289,-0.44c0.03,-0.115 0.043,-0.357 0.041,-0.725c-0.247,0.291 -0.555,0.436 -0.923,0.436c-0.459,0 -0.813,-0.165 -1.065,-0.496c-0.251,-0.331 -0.376,-0.728 -0.376,-1.19c0,-0.318 0.057,-0.612 0.172,-0.881c0.115,-0.269 0.282,-0.477 0.501,-0.623c0.219,-0.147 0.476,-0.22 0.771,-0.22c0.394,0 0.718,0.159 0.973,0.477l0,-0.402l0.522,0l0,2.883c0,0.519 -0.053,0.887 -0.159,1.104c-0.106,0.216 -0.273,0.387 -0.502,0.513c-0.229,0.126 -0.512,0.188 -0.847,0.188c-0.397,0 -0.719,-0.089 -0.964,-0.268c-0.244,-0.179 -0.363,-0.449 -0.354,-0.809Zm0.468,-2.003c0,0.438 0.086,0.757 0.26,0.958c0.174,0.201 0.392,0.301 0.653,0.301c0.26,0 0.478,-0.1 0.653,-0.3c0.176,-0.2 0.264,-0.513 0.264,-0.94c0,-0.408 -0.09,-0.716 -0.271,-0.923c-0.182,-0.208 -0.4,-0.311 -0.655,-0.311c-0.251,0 -0.465,0.102 -0.641,0.306c-0.176,0.204 -0.263,0.507 -0.263,0.909Z" style="fill:#fff;fill-rule:nonzero;"/><path d="M34.851,37.42c0.036,0.013 0.058,0.038 0.066,0.076c0.167,2.334 0.58,5.003 -1.824,4.785c-0.619,-0.057 -1.189,-0.512 -1.188,-1.127c0,-0.016 -0.002,-0.12 0.094,-0.127c0.293,0.023 0.598,-0.011 0.657,0.243c0.171,0.626 1.418,0.492 1.487,-0.328c0.015,-0.187 0.318,-0.313 -0.397,-0.071c-0.601,0.203 -1.307,-0.057 -1.651,-0.6c-0.801,-1.266 0.271,-3.398 1.714,-2.845c0.149,0.057 0.283,0.144 0.401,0.25c0,0 -0.091,-0.222 0.08,-0.259c0.192,-0.014 0.376,-0.037 0.561,0.003Zm-1.573,0.108c-1.215,0.048 -1.798,2.16 -0.722,2.986c0.485,0.373 1.19,0.265 1.633,-0.177c0.297,-0.221 0.194,0.424 0.117,0.792c-0.166,0.792 -1.644,0.997 -1.838,0.155l-0.375,-0.055c0.006,0.095 0.022,0.19 0.055,0.28c0.383,1.052 2.377,0.754 2.545,-0.465c0.03,-0.216 0.037,-0.434 0.039,-0.652l0,-2.79l-0.335,0c0,0 0.099,0.656 -0.235,0.287c-0.229,-0.239 -0.548,-0.366 -0.884,-0.361Zm0.119,0.281c0.251,0.01 0.49,0.122 0.662,0.302c0.863,0.903 -0.105,3.209 -1.31,2.12c-0.292,-0.265 -0.376,-0.702 -0.376,-1.114c0,-0.588 0.29,-1.317 1.024,-1.308Zm-0.047,0.186c-1.06,0.041 -1.094,2.618 0.237,2.262c0.058,-0.016 0.114,-0.038 0.166,-0.068c0.78,-0.441 0.661,-2.207 -0.403,-2.194Z" style="fill-rule:nonzero;"/><path d="M35.468,39.177c0,-0.618 0.172,-1.075 0.515,-1.373c0.287,-0.247 0.637,-0.37 1.049,-0.37c0.459,0 0.833,0.15 1.124,0.451c0.291,0.3 0.437,0.715 0.437,1.245c0,0.429 -0.065,0.766 -0.193,1.012c-0.129,0.246 -0.316,0.437 -0.562,0.573c-0.246,0.136 -0.515,0.204 -0.806,0.204c-0.467,0 -0.844,-0.149 -1.132,-0.449c-0.288,-0.299 -0.432,-0.73 -0.432,-1.293Zm0.581,0c0,0.427 0.093,0.746 0.28,0.959c0.186,0.212 0.421,0.319 0.703,0.319c0.281,0 0.514,-0.107 0.7,-0.321c0.187,-0.213 0.28,-0.539 0.28,-0.976c0,-0.413 -0.094,-0.725 -0.281,-0.937c-0.188,-0.213 -0.42,-0.319 -0.699,-0.319c-0.282,0 -0.517,0.106 -0.703,0.317c-0.187,0.211 -0.28,0.531 -0.28,0.958Z" style="fill:#fff;fill-rule:nonzero;"/><path d="M37.077,37.341c1.164,0.037 1.943,1.433 1.476,2.686c-0.395,1.057 -2.145,1.405 -2.877,0.313c-0.739,-1.102 -0.143,-2.93 1.276,-2.998c0.042,-0.001 0.083,-0.001 0.125,-0.001Zm-0.082,0.186c-1.581,0.046 -2.236,3.254 -0.004,3.299c0.563,0.011 1.136,-0.292 1.358,-0.793c0.46,-1.037 -0.085,-2.517 -1.354,-2.506Zm0.065,0.282c1.336,0.049 1.324,3.181 -0.328,2.697c-0.078,-0.022 -0.152,-0.055 -0.221,-0.096c-0.94,-0.561 -0.809,-2.617 0.549,-2.601Zm-0.052,0.186c-1.038,0.037 -1.338,2.335 0,2.366c1.036,0.025 1.401,-2.382 0,-2.366Z" style="fill-rule:nonzero;"/></g><rect x="1.26" y="25.826" width="59.814" height="0.606"/><rect x="10.217" y="21.027" width="0.579" height="26.72"/><g><text x="68px" y="40px" style="font-family:'Roboto-Regular', 'Roboto';font-size:24px;fill:#fff;">A<tspan x="83.527px " y="40px ">C</tspan> Ener<tspan x="152.586px " y="40px ">g</tspan>o</text></g></g></svg>