<svg width="114" height="114" viewBox="0 0 114 114" fill="none" xmlns="http://www.w3.org/2000/svg">
<g clip-path="url(#clip0)">
<path d="M100.64 57.0342C100.64 81.1547 81.0861 100.708 56.9656 100.708C32.8451 100.708 13.2915 81.1547 13.2915 57.0342C13.2915 32.9137 32.8451 13.3601 56.9656 13.3601C81.0861 13.3601 100.64 32.9137 100.64 57.0342Z" fill="#FCB1BA"/>
<path d="M34.1796 57.0342C34.1796 55.3821 34.253 53.7526 34.389 52.1455C26.2657 57.1554 19.9998 64.6801 16.5431 73.5762C15.5904 71.2492 14.8422 68.843 14.3062 66.386C18.7028 86.4248 36.4508 100.704 56.966 100.708C57.8805 100.708 58.7872 100.671 59.6881 100.614C44.9204 94.9071 34.1796 77.5571 34.1796 57.0342Z" fill="#F96E7F"/>
<path d="M38.8958 34.5169C43.404 24.5185 50.8152 16.8823 59.6877 13.453C58.7869 13.3983 57.8802 13.3601 56.9656 13.3601C32.8451 13.3601 13.2915 32.9137 13.2915 57.0342C13.2915 57.8246 13.313 58.609 13.3561 59.3886C13.3619 59.4971 13.3737 59.6038 13.3805 59.7123C13.4236 60.398 13.4754 61.0807 13.5497 61.7566C13.5546 61.8065 13.5634 61.8554 13.5683 61.9043C13.7375 63.4096 13.983 64.9042 14.3048 66.3841L14.3058 66.3851C16.8352 52.397 26.0061 40.5118 38.8958 34.5169Z" fill="#F96E7F"/>
<path d="M45.5729 57.0343C45.5738 53.6754 45.8692 50.3234 46.458 47.0164C42.1983 48.105 38.1284 49.8343 34.389 52.1456C34.253 53.7527 34.1797 55.3822 34.1797 57.0343C34.1797 77.5572 44.9204 94.9072 59.6881 100.615C62.5296 100.442 65.3466 99.9924 68.1 99.2706C54.8914 92.502 45.5729 76.1478 45.5729 57.0343Z" fill="#FCB1BA"/>
<path d="M38.896 34.517C43.0921 32.5725 47.5729 31.3117 52.1681 30.7835C55.7921 24.0051 61.3341 18.4445 68.0998 14.798C65.3464 14.0762 62.5294 13.6263 59.6879 13.4531C50.8154 16.8824 43.4042 24.5186 38.896 34.517Z" fill="#FCB1BA"/>
<path d="M56.9659 57.0343C56.962 53.2186 57.3415 49.4118 58.0966 45.6724C57.8237 45.6675 57.5567 45.6411 57.2819 45.6411C53.6305 45.645 49.9939 46.1077 46.458 47.0164C45.8691 50.3234 45.5728 53.6754 45.5728 57.0343C45.5728 76.1478 54.8913 92.502 68.0999 99.2706C70.5608 98.6221 72.9592 97.7574 75.2685 96.6864C64.3429 88.8545 56.9659 74.037 56.9659 57.0343Z" fill="#F96E7F"/>
<path d="M63.4799 30.9261C66.3615 25.5963 70.3874 20.9708 75.2683 17.3811C72.9599 16.311 70.5606 15.4473 68.0996 14.7979C61.3339 18.4443 55.7919 24.0039 52.168 30.7833C55.9259 30.2952 59.7347 30.3431 63.4799 30.9261Z" fill="#F96E7F"/>
<path d="M68.359 57.0342C68.359 53.7771 68.6368 50.5248 69.1894 47.3146C65.5782 46.2925 61.8496 45.7399 58.0966 45.6724C57.3405 49.4117 56.9619 53.2186 56.9659 57.0342C56.9659 74.0369 64.3428 88.8545 75.2685 96.6863C77.6453 95.5869 79.9185 94.2752 82.0606 92.768C73.7172 84.4207 68.359 71.5222 68.359 57.0342Z" fill="#FCB1BA"/>
<path d="M63.4805 30.9261C66.9127 31.4132 70.2745 32.3112 73.4935 33.5993C75.6287 29.0423 78.5259 24.8823 82.0609 21.3004C79.9198 19.7922 77.6466 18.4815 75.2688 17.3811C70.388 20.9708 66.362 25.5963 63.4805 30.9261Z" fill="#FCB1BA"/>
<path d="M69.1893 47.3147C68.6367 50.5249 68.3589 53.7771 68.3589 57.0343C68.3589 71.5222 73.717 84.4207 82.0604 92.768C90.2913 86.9844 96.2774 78.5393 99.0074 68.8559C98.6337 70.1891 98.1994 71.4948 97.7045 72.7732C92.6036 60.3648 82.0937 50.9817 69.1893 47.3147Z" fill="#F96E7F"/>
<path d="M73.4932 33.5994C86.9228 38.9762 96.8243 50.6462 99.9416 64.7732L99.9426 64.7722C100.164 63.5368 100.333 62.2848 100.451 61.0152C100.456 60.9526 100.46 60.8891 100.465 60.8265C100.576 59.5764 100.64 58.3127 100.64 57.0343C100.647 42.8046 93.7119 29.4669 82.0605 21.2996C78.5256 24.8824 75.6284 29.0424 73.4932 33.5994Z" fill="#F96E7F"/>
<path d="M77.8517 45.641C76.8031 45.64 75.9541 44.79 75.9541 43.7415C75.9551 43.3424 76.0803 42.9531 76.3141 42.6303L101 8.45082C101.613 7.60084 102.8 7.4101 103.651 8.02338C104.5 8.63765 104.691 9.82411 104.078 10.6741L79.3922 44.8536C79.0352 45.3485 78.462 45.642 77.8517 45.641Z" fill="#CFDFE8"/>
<path d="M110.133 7.66362C110.133 10.8102 107.583 13.3602 104.437 13.3602C101.291 13.3602 98.7402 10.8102 98.7402 7.66362C98.7402 4.51798 101.291 1.96704 104.437 1.96704C107.583 1.96704 110.133 4.51798 110.133 7.66362Z" fill="#EB8CB3"/>
<path d="M104.435 95.0118C104.04 95.0118 103.655 94.8876 103.333 94.6587L63.4574 66.1758C62.6055 65.5635 62.4108 64.377 63.0231 63.5251C63.6325 62.6761 64.8121 62.4795 65.664 63.0839L105.54 91.5668C106.394 92.1772 106.592 93.3627 105.981 94.2166C105.624 94.7154 105.049 95.0118 104.435 95.0118Z" fill="#CFDFE8"/>
<path d="M112.033 95.0118C112.033 98.1574 109.482 100.708 106.337 100.708C103.19 100.708 100.639 98.1574 100.639 95.0118C100.639 91.8652 103.19 89.3142 106.337 89.3142C109.482 89.3142 112.033 91.8652 112.033 95.0118Z" fill="#EB8CB3"/>
<path d="M68.359 114H50.3195C47.6991 113.997 45.5756 111.874 45.5727 109.253C45.5717 108.729 45.1472 108.304 44.6229 108.303H9.49463C4.25092 108.303 0 104.053 0 98.8088C0 93.5651 4.25092 89.3152 9.49463 89.3152H37.9775C39.0261 89.3152 39.8761 90.1652 39.8761 91.2137C39.8761 92.2623 39.0261 93.1123 37.9775 93.1123H9.49463C6.34801 93.1123 3.79707 95.6632 3.79707 98.8098C3.79707 101.955 6.34801 104.506 9.49463 104.506H44.6229C47.2433 104.508 49.3678 106.633 49.3707 109.253C49.3707 109.777 49.7952 110.202 50.3195 110.203H68.359C69.4075 110.203 70.2575 111.053 70.2575 112.102C70.2575 113.15 69.4075 114 68.359 114Z" fill="#F98C96"/>
<path d="M106.337 87.4164C104.714 87.4212 103.137 87.9504 101.839 88.9236L94.0924 83.3904C96.2736 80.3396 98.0704 77.0316 99.4417 73.5407L99.475 73.4595C99.9161 72.321 100.317 71.1414 100.671 69.9451V69.9403C100.729 69.7505 100.783 69.5607 100.837 69.37V69.3622L100.839 69.3602C101.191 68.1024 101.485 66.8093 101.729 65.5143C101.749 65.4663 101.744 65.4086 101.761 65.3587C101.776 65.2746 101.796 65.1915 101.812 65.1083V65.1074L101.814 65.0927C101.845 64.989 101.867 64.8824 101.878 64.7738L101.873 64.7494C102.072 63.5825 102.224 62.4195 102.329 61.2849C102.332 61.2536 102.339 61.2223 102.342 61.1909L102.357 60.9953C102.479 59.6211 102.538 58.3251 102.538 57.0349C102.524 46.2922 98.7179 35.8987 91.7899 27.6883L101.279 14.5512C102.268 15.0138 103.345 15.2554 104.437 15.2603C108.632 15.2603 112.032 11.8594 112.032 7.66421C112.032 3.47002 108.632 0.0690918 104.437 0.0690918C100.242 0.0690918 96.8419 3.47002 96.8419 7.66421C96.8458 9.27811 97.3691 10.848 98.3335 12.142L89.1734 24.8263C83.4827 19.1161 76.3776 15.0216 68.583 12.9617L68.581 12.9607C65.7083 12.2095 62.769 11.7391 59.8043 11.5581C58.8644 11.5004 57.9195 11.4623 56.9658 11.4623C31.8085 11.4906 11.4215 31.8776 11.3932 57.0349C11.3932 57.8604 11.4166 58.6791 11.4597 59.4861L11.4763 59.714L11.4841 59.8098V59.8118L11.4851 59.8304C11.4871 59.8744 11.491 59.9174 11.4929 59.9615C11.4968 60.0123 11.5027 60.0632 11.5056 60.114C11.5379 60.5943 11.58 61.099 11.6348 61.6399C11.6455 61.7465 11.6494 61.8541 11.6612 61.9598V61.9646L11.669 61.9901L11.6778 62.0791H11.6768H11.6778L11.6807 62.1074L11.6798 62.1153C11.7668 62.8929 11.8773 63.6744 12.0064 64.4549C12.0358 64.6369 12.0759 64.812 12.1072 64.9929C12.2021 65.527 12.295 66.062 12.4085 66.5921C12.4202 66.6498 12.4329 66.7076 12.4456 66.7653L12.4505 66.7839L12.4515 66.7907V66.7927C13.01 69.3563 13.7905 71.8671 14.7843 74.2958C14.8088 74.3555 14.8371 74.4132 14.8675 74.4709C17.2042 80.0364 20.6237 85.0835 24.9284 89.3159H9.49463C4.25092 89.3149 0 93.5658 0 98.8095C0 104.053 4.25092 108.304 9.49463 108.304H44.6229C45.1472 108.305 45.5717 108.73 45.5727 109.254C45.5756 111.874 47.6991 113.998 50.3195 114.001H68.359C69.4075 114.001 70.2575 113.151 70.2575 112.102C70.2575 111.053 69.4075 110.203 68.359 110.203H50.3195C49.7952 110.202 49.3707 109.777 49.3707 109.254C49.3678 106.633 47.2433 104.509 44.6229 104.506H9.49463C6.34801 104.506 3.79707 101.956 3.79707 98.8095C3.79707 95.6629 6.34801 93.1129 9.49463 93.1129H29.2595C37.196 99.2458 46.9362 102.583 56.9658 102.607C57.9195 102.607 58.8644 102.569 59.8053 102.511C62.768 102.33 65.7073 101.86 68.5791 101.108H68.584C77.6482 98.7234 85.748 93.5815 91.7615 86.3923L99.4378 91.8756C98.983 92.8586 98.7453 93.9277 98.7414 95.0115C98.7414 99.2066 102.142 102.607 106.337 102.607C110.532 102.607 113.932 99.2066 113.932 95.0115C113.932 90.8173 110.531 87.4164 106.337 87.4164ZM91.0064 81.1857L71.175 67.0206C71.1505 66.8875 71.1134 66.7604 71.0889 66.6273C71.0645 66.4865 71.0459 66.3427 71.0224 66.2019C70.7857 64.7846 70.595 63.3477 70.4698 61.8923C70.4619 61.8062 70.46 61.7182 70.4522 61.6311C70.3279 60.114 70.2575 58.5823 70.2575 57.0349C70.2575 55.6117 70.3309 54.1837 70.4404 52.7605C70.4737 52.336 70.5236 51.9135 70.5656 51.4899C70.6224 50.9256 70.7084 50.3661 70.7828 49.8037C81.9236 53.6496 90.9428 61.9871 95.6505 72.7915C94.4298 75.7581 92.8717 78.5751 91.0064 81.1857ZM98.6964 55.0933C95.5116 48.2054 90.6523 42.2242 84.5616 37.6974L89.4923 30.8701C95.047 37.7659 98.27 46.2482 98.6964 55.0933ZM100.64 7.66421C100.618 5.5456 102.318 3.81041 104.437 3.78889C106.557 3.76737 108.292 5.46735 108.313 7.58694C108.335 9.70555 106.634 11.4407 104.515 11.4623C104.202 11.4652 103.889 11.43 103.585 11.3576L104.078 10.6749C104.691 9.82488 104.5 8.63842 103.651 8.02416C102.8 7.4099 101.613 7.60161 101 8.4516L100.807 8.71862C100.701 8.37726 100.645 8.0222 100.64 7.66421ZM86.9159 27.9514L81.4247 35.5544C79.7257 34.4755 77.9563 33.5091 76.1282 32.663C76.3062 32.3285 76.4735 31.9852 76.6574 31.6566C76.8197 31.367 76.9801 31.0765 77.1484 30.7919C77.6531 29.937 78.1793 29.1046 78.731 28.2996C78.7926 28.2097 78.8484 28.1138 78.911 28.0248C79.5262 27.1435 80.1767 26.3004 80.8486 25.4827C81.0403 25.2489 81.2408 25.0249 81.4374 24.796C81.7201 24.4674 82.0185 24.1573 82.3109 23.8394C83.9454 25.0953 85.4849 26.4696 86.9159 27.9514ZM78.5119 22.3722C78.2801 22.6441 78.0502 22.9161 77.8233 23.1938C77.2227 23.9304 76.6427 24.6904 76.0842 25.4739C75.958 25.6489 75.825 25.8162 75.7017 25.9942C75.0356 26.9557 74.4048 27.9544 73.8032 28.9804C73.6487 29.2445 73.5049 29.5184 73.3542 29.7854C73.0872 30.2618 72.8104 30.7273 72.5571 31.2164C70.5891 30.517 68.5751 29.9536 66.5299 29.5321C66.6023 29.4186 66.6786 29.3091 66.7519 29.1956C67.2371 28.4503 67.7428 27.7245 68.2661 27.0203C68.3873 26.8569 68.5047 26.6906 68.627 26.5302C69.2295 25.7438 69.8555 24.9877 70.504 24.262C70.6468 24.0996 70.7945 23.9441 70.9402 23.7856C71.5496 23.1244 72.1737 22.4857 72.8163 21.8793C72.9004 21.8 72.9806 21.7159 73.0647 21.6377C73.7729 20.9823 74.5045 20.37 75.2498 19.7861C75.331 19.7215 75.4142 19.6609 75.4954 19.5973C76.7386 20.2145 77.9514 20.8923 79.133 21.6328C78.9188 21.8714 78.7212 22.1287 78.5119 22.3722ZM71.2552 18.1722C70.5343 18.806 69.8252 19.4643 69.1395 20.1597C69.0916 20.2086 69.0398 20.2536 68.9918 20.3035C68.271 21.042 67.5784 21.8245 66.9026 22.6275C66.7285 22.8339 66.5573 23.0422 66.3861 23.2535C65.7503 24.037 65.1312 24.84 64.5404 25.6763C64.5071 25.7243 64.47 25.7692 64.4357 25.8172C63.8195 26.6975 63.2395 27.614 62.6781 28.5471C62.6096 28.6606 62.5313 28.7652 62.4638 28.8797C60.7453 28.6674 59.015 28.5579 57.2827 28.552C56.7868 28.552 56.2841 28.5628 55.7676 28.5833C56.0689 28.1363 56.3731 27.6913 56.6871 27.2609C56.7956 27.1122 56.8983 26.9557 57.0089 26.809C57.5204 26.1272 58.0486 25.468 58.5934 24.8332C58.7509 24.6483 58.9162 24.4752 59.0756 24.2952C59.4757 23.8443 59.8796 23.4022 60.2953 22.9767C60.5047 22.7615 60.7189 22.5522 60.9331 22.3429C61.3234 21.9614 61.7195 21.5917 62.1225 21.2327C62.3396 21.039 62.5558 20.8444 62.7759 20.6576C63.2385 20.2644 63.7109 19.8898 64.1892 19.5249C64.3516 19.4017 64.5081 19.2706 64.6715 19.1513C65.318 18.6769 65.9763 18.2299 66.6463 17.8093C66.7891 17.7203 66.9348 17.643 67.0786 17.5569C67.4973 17.3036 67.9237 17.0679 68.3512 16.8361C69.4271 17.1412 70.4991 17.4924 71.5574 17.8875C71.4538 17.9775 71.3589 18.0822 71.2552 18.1722ZM62.6018 15.9685C62.3973 16.1162 62.1968 16.2717 61.9943 16.4243C61.474 16.8175 60.9624 17.2263 60.4587 17.6489C60.265 17.8122 60.0694 17.9726 59.8777 18.1399C59.2175 18.718 58.567 19.3156 57.9371 19.9455C57.8853 19.9973 57.8363 20.0541 57.7845 20.1069C57.2064 20.6908 56.645 21.3002 56.0943 21.9272C55.9104 22.1365 55.7304 22.3517 55.5495 22.5669C55.1142 23.0823 54.6888 23.6105 54.273 24.1534C54.1107 24.3647 53.9464 24.572 53.7869 24.7872C53.2382 25.5296 52.7032 26.2886 52.1916 27.076C52.127 27.1758 52.0674 27.2804 52.0028 27.3802C51.6585 27.9192 51.3162 28.461 50.9895 29.0205C48.2547 29.3961 45.5609 30.0192 42.9386 30.8819C43.2927 30.2784 43.6506 29.6817 44.0262 29.1046C44.1769 28.8728 44.3177 28.6283 44.4723 28.4004C45.1247 27.4389 45.8064 26.5175 46.5185 25.6352C46.6809 25.4337 46.8559 25.2518 47.0213 25.0552C47.5807 24.3881 48.1539 23.7406 48.7467 23.1244C49.0117 22.8496 49.2856 22.5903 49.5565 22.3263C50.0798 21.8157 50.6119 21.3217 51.1568 20.8512C51.4561 20.593 51.7573 20.3416 52.0625 20.0942C52.6239 19.6423 53.1981 19.2168 53.7811 18.806C54.0745 18.5986 54.365 18.3844 54.6643 18.1878C55.3881 17.7134 56.1276 17.2782 56.8788 16.8693C57.047 16.7783 57.2074 16.6717 57.3776 16.5837C58.2423 16.1338 59.1304 15.7415 60.0283 15.3806C61.0123 15.452 61.9934 15.5567 62.9646 15.6956C62.8414 15.7826 62.724 15.8795 62.6018 15.9685ZM51.6996 15.5899C50.9083 16.1426 50.1385 16.7353 49.3844 17.3554C49.2367 17.4757 49.0968 17.6098 48.9511 17.733C48.2058 18.3649 47.48 19.029 46.7738 19.7264C46.5469 19.9504 46.3199 20.1754 46.0969 20.4062C45.3213 21.2073 44.5642 22.0358 43.8414 22.9131C43.7993 22.964 43.7543 23.01 43.7132 23.0608C42.9542 23.9891 42.2363 24.9701 41.5408 25.9795C41.354 26.2495 41.174 26.5263 40.9921 26.8021C40.4375 27.6443 39.9044 28.5119 39.3939 29.4039C39.2628 29.6328 39.1259 29.8539 38.9977 30.0867C38.4598 31.0648 37.9413 32.0644 37.4582 33.0983C27.405 37.9654 19.4832 46.3489 15.1932 56.6613C15.4064 35.7784 30.9859 18.2514 51.6996 15.5899ZM16.2535 66.3515C20.5161 43.7119 42.3243 28.8151 64.9639 33.0788C70.0149 34.0295 74.8469 35.9065 79.2152 38.6139L76.314 42.6311C75.6998 43.4811 75.8915 44.6675 76.7415 45.2818C77.5915 45.8951 78.7779 45.7043 79.3922 44.8544L82.354 40.7541C90.2513 46.66 95.7943 55.1794 97.9912 64.7934C97.8102 65.7549 97.5862 66.6929 97.3446 67.6153C91.4573 56.8452 81.5049 48.8774 69.7068 45.4882H69.7019C65.9362 44.423 62.0491 43.8469 58.1366 43.7745L58.1357 43.7735L57.8393 43.7608C57.6554 43.752 57.4696 43.7422 57.2827 43.7422C53.472 43.7471 49.6769 44.2303 45.9854 45.1781L45.9815 45.1791C41.5369 46.3137 37.2919 48.1184 33.3911 50.5314C26.3418 54.8977 20.6022 61.0863 16.7777 68.4437C16.5831 67.7551 16.4139 67.0548 16.2535 66.3515ZM36.034 93.1129H37.9775C39.0261 93.1129 39.8761 92.2629 39.8761 91.2144C39.8761 90.1659 39.0261 89.3149 37.9775 89.3149H30.579C25.3832 85.0914 21.2751 79.6823 18.599 73.5436C21.4884 66.5276 26.2195 60.4221 32.2917 55.8719C32.2839 56.2622 32.281 56.6495 32.28 57.0349C32.28 58.2497 32.325 59.4538 32.3964 60.6491C32.4189 61.0325 32.458 61.411 32.4883 61.7925C32.5519 62.6053 32.6262 63.4142 32.7221 64.2153C32.7739 64.6496 32.8356 65.079 32.8972 65.5094C33.0038 66.2606 33.1251 67.0049 33.2591 67.7424C33.3363 68.1679 33.4146 68.5904 33.5017 69.012C33.6591 69.7789 33.8371 70.5359 34.024 71.2881C34.1149 71.652 34.1981 72.0188 34.2949 72.3777C34.561 73.3617 34.8524 74.332 35.1684 75.2886C35.2046 75.4001 35.2349 75.5155 35.2721 75.6271C35.632 76.6922 36.0272 77.7359 36.4468 78.7619C36.569 79.0622 36.706 79.3527 36.8341 79.6491C37.1432 80.368 37.4621 81.0791 37.8005 81.7755C37.9726 82.1296 38.1536 82.4749 38.3326 82.8221C38.6564 83.451 38.9919 84.0702 39.3391 84.6796C39.5357 85.0239 39.7342 85.3662 39.9387 85.7037C40.3084 86.316 40.6938 86.9126 41.088 87.5024C41.2865 87.7998 41.4792 88.101 41.6846 88.3925C42.1805 89.0977 42.697 89.7815 43.2281 90.4505C43.3455 90.5992 43.454 90.7557 43.5734 90.9024C44.2297 91.7084 44.9105 92.483 45.6157 93.2284C45.8084 93.4318 46.0109 93.6206 46.2075 93.8191C46.7288 94.3503 47.258 94.8706 47.8047 95.3685C48.0737 95.614 48.3515 95.8478 48.6273 96.0845C49.1242 96.5119 49.6289 96.9276 50.1444 97.3277C50.4447 97.5605 50.7479 97.7874 51.0531 98.0104C51.2575 98.1591 51.4521 98.3224 51.6595 98.4662C46.1458 97.7424 40.8337 95.9221 36.034 93.1129ZM60.0224 98.6892C59.6283 98.5308 59.2439 98.3459 58.8565 98.1698C58.4252 97.9742 57.9889 97.7913 57.5664 97.5742C57.135 97.3531 56.7193 97.0978 56.2968 96.8543C55.886 96.6175 55.4683 96.3936 55.0663 96.1363C54.6526 95.8712 54.2545 95.5749 53.8515 95.2893C53.4602 95.0134 53.0631 94.7493 52.6816 94.4549C52.2894 94.1517 51.9148 93.8172 51.5343 93.4954C51.1626 93.1804 50.7831 92.8782 50.4222 92.5456C50.0515 92.2052 49.7003 91.8355 49.3414 91.4765C48.9922 91.1273 48.6352 90.7899 48.2977 90.4251C47.9495 90.0475 47.6218 89.6435 47.2853 89.2494C46.9606 88.8679 46.6271 88.4991 46.3131 88.103C45.9903 87.6941 45.6881 87.2579 45.378 86.8324C45.0777 86.4216 44.7677 86.0216 44.4801 85.597C44.1808 85.154 43.905 84.6874 43.6193 84.2296C43.3465 83.7934 43.0638 83.3689 42.8046 82.9199C42.5307 82.4465 42.2832 81.9496 42.024 81.4625C41.7805 81.0038 41.5252 80.5558 41.2953 80.0853C41.0498 79.5845 40.8327 79.0622 40.6028 78.5487C40.3886 78.0684 40.1607 77.598 39.9612 77.1079C39.743 76.5758 39.5552 76.0242 39.3547 75.4803C39.1728 74.9874 38.9772 74.5042 38.8089 74.0024C38.6192 73.4331 38.4598 72.8463 38.2886 72.2652C38.1428 71.7713 37.9805 71.2852 37.8484 70.7834C37.687 70.1682 37.5579 69.5363 37.4181 68.9113C37.3085 68.4271 37.1833 67.9517 37.0874 67.4627C36.9554 66.7878 36.8595 66.0992 36.7529 65.4145C36.6815 64.9606 36.5915 64.5126 36.5329 64.0549C36.4321 63.2812 36.3715 62.4967 36.304 61.7133C36.2707 61.3318 36.2189 60.9572 36.1934 60.5738C36.1181 59.4029 36.079 58.2233 36.079 57.0349C36.079 55.8025 36.1543 54.5251 36.2404 53.2506C38.7395 51.7853 41.3863 50.5871 44.1358 49.6755C44.1162 49.8281 44.1104 49.9817 44.0928 50.1343C43.9861 51.0351 43.902 51.9369 43.8375 52.8417C43.8159 53.1479 43.7934 53.454 43.7768 53.7602C43.7152 54.8527 43.6741 55.9453 43.6741 57.0349C43.6741 58.1862 43.7113 59.3286 43.7758 60.4632C43.7974 60.8359 43.8375 61.2037 43.8658 61.5744C43.9235 62.3334 43.9832 63.0905 44.0693 63.8407C44.1182 64.274 44.1837 64.7014 44.2424 65.1308C44.3353 65.8096 44.4322 66.4875 44.5476 67.1565C44.6258 67.6055 44.7139 68.0495 44.8019 68.4936C44.9281 69.1353 45.0621 69.772 45.2088 70.4039C45.3125 70.8499 45.423 71.292 45.5374 71.7331C45.6979 72.3552 45.869 72.9715 46.05 73.5818C46.1771 74.0112 46.3062 74.4396 46.4432 74.8641C46.6417 75.4784 46.854 76.0838 47.0721 76.6864C47.2179 77.0884 47.3607 77.4913 47.5142 77.8875C47.7588 78.5125 48.0199 79.1248 48.286 79.7352C48.4405 80.0902 48.5862 80.4502 48.7476 80.8003C49.0694 81.4968 49.4137 82.1766 49.7629 82.8515C49.8901 83.096 50.0055 83.3483 50.1356 83.5899C50.6276 84.5015 51.1431 85.3916 51.684 86.2602C51.7769 86.4089 51.8796 86.5488 51.9745 86.6955C52.4273 87.4036 52.8919 88.101 53.3771 88.7759C53.5815 89.0596 53.7977 89.3276 54.008 89.6054C54.4022 90.1277 54.7993 90.6471 55.213 91.1479C55.4634 91.4492 55.7236 91.7387 55.9799 92.0321C56.376 92.484 56.7751 92.932 57.1869 93.3643C57.4666 93.6578 57.7542 93.9424 58.0418 94.226C58.4535 94.6329 58.8702 95.031 59.2967 95.4184C59.5989 95.6922 59.9051 95.9612 60.2142 96.2243C60.6494 96.595 61.0925 96.9521 61.5415 97.3013C61.8603 97.5477 62.1782 97.7942 62.503 98.0309C62.6565 98.1424 62.8023 98.2667 62.9568 98.3752C61.9855 98.5141 61.0055 98.6178 60.0224 98.6892ZM68.3521 97.2328C68.0303 97.0587 67.7124 96.8748 67.3955 96.688C67.0278 96.4728 66.6571 96.2625 66.2971 96.0317C65.8902 95.7695 65.495 95.4868 65.0979 95.2071C64.7468 94.9596 64.3927 94.7171 64.0504 94.4549C63.663 94.1595 63.2904 93.8426 62.9148 93.5296C62.5812 93.2518 62.2438 92.9789 61.919 92.6875C61.5552 92.3608 61.207 92.0126 60.8548 91.6692C60.5389 91.3611 60.2181 91.0599 59.9119 90.739C59.5715 90.382 59.2478 90.0054 58.9201 89.6338C58.6237 89.2983 58.3215 88.9686 58.0349 88.6204C57.718 88.2341 57.4167 87.8281 57.1116 87.4271C56.8377 87.0672 56.557 86.7141 56.2938 86.3434C56.0004 85.9296 55.7256 85.4983 55.4448 85.0708C55.1925 84.6864 54.9323 84.3089 54.6907 83.9137C54.4227 83.4765 54.1743 83.0207 53.9199 82.5698C53.6901 82.1638 53.4524 81.7638 53.2343 81.3481C52.9907 80.8835 52.7677 80.4013 52.5388 79.9249C52.3344 79.5014 52.1222 79.0847 51.9295 78.6524C51.7104 78.1623 51.5157 77.6567 51.3123 77.1549C51.1343 76.7167 50.9465 76.2843 50.7792 75.8373C50.5865 75.3199 50.4183 74.7868 50.2412 74.2587C50.0916 73.8117 49.9302 73.3715 49.7923 72.9167C49.626 72.3699 49.4861 71.8085 49.3365 71.2519C49.2152 70.799 49.0812 70.353 48.9716 69.8943C48.8327 69.3152 48.7222 68.7225 48.6019 68.1346C48.51 67.6847 48.4043 67.2406 48.3241 66.7868C48.2136 66.1657 48.1334 65.5328 48.0444 64.9039C47.9827 64.4677 47.9055 64.0383 47.8546 63.5981C47.7724 62.9027 47.7235 62.1955 47.6678 61.4903C47.6375 61.1068 47.5905 60.7303 47.568 60.3449C47.5044 59.2504 47.4722 58.147 47.4712 57.0349C47.4712 55.513 47.5465 53.9861 47.6727 52.4622C47.7147 51.9614 47.791 51.4645 47.8468 50.9657C47.9348 50.1616 48.0414 49.3606 48.1647 48.5624C50.6814 47.9951 53.2441 47.6625 55.8214 47.5667C55.8087 47.6449 55.8048 47.7261 55.7921 47.8044C55.5798 49.1532 55.4204 50.5148 55.302 51.8841C55.2766 52.1805 55.257 52.4769 55.2355 52.7742C55.1348 54.1896 55.0663 55.6088 55.0663 57.0349C55.0663 58.057 55.0956 59.0743 55.1485 60.0867C55.1661 60.4231 55.1993 60.7547 55.2228 61.0902C55.2698 61.7632 55.3157 62.4361 55.3852 63.1032C55.4272 63.5013 55.484 63.8925 55.5329 64.2877C55.6072 64.8873 55.6815 65.4878 55.7745 66.0816C55.839 66.4953 55.9173 66.9042 55.9906 67.315C56.0914 67.8833 56.1941 68.4515 56.3124 69.013C56.4005 69.4297 56.4973 69.8424 56.5941 70.2552C56.7213 70.801 56.8514 71.3448 56.9942 71.8838C57.1037 72.2985 57.2211 72.7103 57.3404 73.1211C57.493 73.6483 57.6515 74.1726 57.8187 74.6929C57.9488 75.0989 58.0848 75.5019 58.2237 75.9039C58.4027 76.4184 58.5885 76.927 58.7822 77.4327C58.9318 77.8249 59.0835 78.2161 59.2419 78.6035C59.4473 79.1072 59.6635 79.6021 59.8826 80.0961C60.0498 80.4707 60.2151 80.8463 60.3902 81.2151C60.625 81.711 60.8724 82.1971 61.1219 82.6822C61.3018 83.0324 61.4779 83.3855 61.6657 83.7298C61.9347 84.2247 62.2183 84.7079 62.503 85.1901C62.6908 85.508 62.8717 85.8318 63.0654 86.1438C63.3843 86.6583 63.7197 87.1552 64.0552 87.6531C64.2333 87.9162 64.4025 88.1881 64.5844 88.4463C65.0461 89.1007 65.5254 89.7355 66.0154 90.3585C66.0848 90.4476 66.1494 90.5415 66.2198 90.6295C66.7832 91.3357 67.3662 92.0184 67.9687 92.6806C68.1604 92.8919 68.3639 93.0885 68.5605 93.2958C68.9762 93.736 69.3929 94.1762 69.8252 94.5948C70.0805 94.8413 70.3465 95.0721 70.6067 95.3108C70.9226 95.6013 71.2308 95.9025 71.5555 96.1813C70.4981 96.5774 69.4271 96.9276 68.3521 97.2328ZM75.5022 94.4686C75.3027 94.315 75.1012 94.1634 74.9046 94.006C74.6092 93.7683 74.3157 93.5286 74.0272 93.2802C73.6878 92.9897 73.3552 92.6884 73.0256 92.3823C72.7459 92.1231 72.4671 91.8619 72.1942 91.5929C71.8734 91.275 71.5594 90.9474 71.2474 90.6168C70.9833 90.337 70.7192 90.0553 70.4619 89.7648C70.1587 89.4235 69.8643 89.0704 69.5719 88.7153C69.3244 88.416 69.0769 88.1167 68.8373 87.8086C68.5527 87.4428 68.2778 87.0662 68.0039 86.6886C67.7731 86.3707 67.5413 86.0538 67.3183 85.7271C67.0532 85.3398 66.8008 84.9417 66.5475 84.5446C66.3333 84.2081 66.1181 83.8746 65.9127 83.5322C65.6701 83.1253 65.4383 82.7087 65.2075 82.292C65.0109 81.9379 64.8113 81.5877 64.6226 81.2268C64.4015 80.8023 64.1932 80.368 63.9838 79.9337C63.8058 79.5659 63.6239 79.2011 63.4547 78.8275C63.2532 78.3824 63.0673 77.9276 62.8786 77.4747C62.7211 77.0962 62.5587 76.7206 62.41 76.3362C62.231 75.8735 62.0677 75.4001 61.9014 74.9287C61.7635 74.5404 61.6207 74.156 61.4926 73.7618C61.3361 73.2815 61.1962 72.7915 61.0534 72.3024C60.937 71.9063 60.8128 71.514 60.7052 71.113C60.5712 70.6142 60.4567 70.1056 60.3374 69.5989C60.2425 69.1979 60.1388 68.8017 60.0537 68.3978C59.9422 67.8735 59.8513 67.3404 59.7554 66.8103C59.684 66.4151 59.6028 66.0238 59.5402 65.6258C59.4522 65.0682 59.3867 64.5029 59.3153 63.9405C59.2673 63.56 59.2077 63.1834 59.1676 62.8C59.102 62.171 59.061 61.5352 59.016 60.9004C58.9944 60.5786 58.9583 60.2598 58.9416 59.936C58.8917 58.9745 58.8663 58.0072 58.8653 57.0349C58.8653 55.5971 58.9367 54.1651 59.0463 52.74C59.0639 52.5042 59.0776 52.2675 59.0991 52.0318C59.2214 50.6624 59.3955 49.3058 59.6204 47.9589C59.638 47.8503 59.6596 47.7418 59.6782 47.6332C62.1626 47.775 64.6284 48.1379 67.0483 48.7179C67.0356 48.806 67.0326 48.896 67.0199 48.984C66.8566 50.1734 66.7304 51.3677 66.6394 52.5668C66.6209 52.8133 66.6081 53.0588 66.5925 53.3063C66.5133 54.5495 66.4604 55.7937 66.4604 57.0349C66.4604 58.6547 66.5358 60.2588 66.6629 61.8482C66.6727 61.9666 66.6766 62.0859 66.6874 62.2043C66.7382 62.7892 66.8067 63.3682 66.8742 63.9483L65.6652 63.0846C64.8104 62.4772 63.6249 62.6787 63.0175 63.5345C62.413 64.3865 62.6096 65.5671 63.4586 66.1764L67.7359 69.2311C67.8963 69.9901 68.0714 70.7423 68.2621 71.4876C68.315 71.695 68.3649 71.9024 68.4196 72.1078C68.7854 73.4771 69.2011 74.8211 69.6658 76.1406C69.7391 76.3489 69.8134 76.5572 69.8897 76.7646C70.3671 78.0733 70.8923 79.3527 71.4645 80.6037C71.5526 80.7954 71.6435 80.9852 71.7335 81.175C72.3262 82.427 72.964 83.6457 73.6457 84.8312C73.7377 84.9887 73.8335 85.1422 73.9265 85.2987C74.6405 86.4979 75.3936 87.6638 76.2006 88.7818C76.2759 88.8865 76.3561 88.9843 76.4314 89.088C77.2795 90.2412 78.1676 91.3552 79.1125 92.4106L79.133 92.4361C77.9553 93.1746 76.7444 93.8514 75.5022 94.4686ZM82.2894 90.2461C82.2473 90.2001 82.2033 90.1561 82.1613 90.1111C81.3201 89.1858 80.5229 88.2125 79.7629 87.2031C79.6524 87.0564 79.5399 86.9116 79.4313 86.763C78.6928 85.7526 77.9954 84.703 77.3411 83.6154C77.2393 83.4462 77.1367 83.2779 77.0369 83.1068C76.3962 82.0142 75.7996 80.8884 75.244 79.7293C75.1579 79.5474 75.0728 79.3654 74.9877 79.1815C74.4458 78.0107 73.947 76.8096 73.4922 75.5791C73.4257 75.3962 73.3621 75.2123 73.2965 75.0284C73.0246 74.2606 72.8006 73.4674 72.5639 72.68L88.6756 84.1876C86.7643 86.4255 84.6242 88.4561 82.2894 90.2461ZM106.337 98.8095C104.254 98.8252 102.554 97.1496 102.538 95.0682C102.536 94.764 102.571 94.4598 102.641 94.1644L103.334 94.6593C104.19 95.2658 105.375 95.0653 105.981 94.2094C106.586 93.3575 106.389 92.1769 105.54 91.5675L105.281 91.3817C105.622 91.276 105.979 91.2193 106.337 91.2144C108.434 91.2144 110.135 92.9144 110.135 95.0125C110.134 97.1095 108.434 98.8095 106.337 98.8095Z" fill="#434351"/>
</g>
<defs>
<clipPath id="clip0">
<rect width="114" height="114" fill="white"/>
</clipPath>
</defs>
</svg>
