<svg xmlns="http://www.w3.org/2000/svg" width="197.41" height="117.339" viewBox="0 0 197.41 117.339"><g transform="translate(-860.817 -497)"><g transform="translate(1078 413.556)"><path d="M82.665,173.7H64.46c-3.51,0-6.356,2.149-6.356,4.8s2.846,4.8,6.356,4.8h.847c3.511,0,6.356,2.149,6.356,4.8s-2.845,4.8-6.356,4.8H26.172c-3.51,0-6.355,2.149-6.355,4.8s2.845,4.8,6.355,4.8h143.16c3.51,0,6.355-2.15,6.355-4.8s-2.845-4.8-6.355-4.8H158.471c-3.511,0-6.356-2.15-6.356-4.8s2.845-4.8,6.356-4.8h42.658c3.51,0,6.355-2.15,6.355-4.8s-2.845-4.8-6.355-4.8H82.665Z" transform="translate(-237 -3)" fill="#cfcfcf"/><path d="M195.571,203.783a5.148,5.148,0,1,1,0-10.289H211.9a5.148,5.148,0,1,1,0,10.289Z" transform="translate(-237 -3)" fill="#cfcfcf"/></g><g transform="translate(898 449)"><path d="M121.094,106.594h-3.906V60.112a5.825,5.825,0,0,1,1.034-3.13,5.751,5.751,0,0,0,.919-3.123,5.86,5.86,0,0,0-11.627-1.041,5.782,5.782,0,0,0,.921,4.3,4.9,4.9,0,0,1,.941,2.749v9.613a7.813,7.813,0,0,0-7.812-7.812H23.438a7.813,7.813,0,0,0-7.812,7.812V60.112a5.825,5.825,0,0,1,1.034-3.13,5.751,5.751,0,0,0,.919-3.123A5.86,5.86,0,0,0,5.951,52.819a5.782,5.782,0,0,0,.921,4.3,4.9,4.9,0,0,1,.941,2.749v46.722H3.906A3.906,3.906,0,0,0,0,110.5v27.344a3.906,3.906,0,0,0,3.906,3.906H121.094A3.906,3.906,0,0,0,125,137.844V110.5A3.906,3.906,0,0,0,121.094,106.594Zm-11.719,0H15.625v-5.859a3.906,3.906,0,0,1,3.906-3.906h3.906V86.1a5.929,5.929,0,0,0-1.522-3.673,1.953,1.953,0,0,1,2.746-2.746A5.93,5.93,0,0,0,28.335,81.2H45.884a5.93,5.93,0,0,0,3.673-1.522A1.953,1.953,0,0,1,52.3,82.427,5.929,5.929,0,0,0,50.781,86.1V96.828H74.219V86.1A5.929,5.929,0,0,0,72.7,82.427a1.953,1.953,0,0,1,2.746-2.746A5.93,5.93,0,0,0,79.116,81.2H96.665a5.93,5.93,0,0,0,3.673-1.522,1.953,1.953,0,0,1,2.746,2.746,5.929,5.929,0,0,0-1.522,3.673V96.828h3.906a3.906,3.906,0,0,1,3.906,3.906v5.859Z" transform="translate(0 0)" fill="#8b8b8b"/><path d="M43.592,48.091l-.032.008a5.836,5.836,0,0,1,4.99,5.76,5.751,5.751,0,0,1-.919,3.123,5.825,5.825,0,0,0-1.034,3.13v46.481H48.55V60.112a5.825,5.825,0,0,1,1.034-3.13,5.751,5.751,0,0,0,.919-3.123A5.864,5.864,0,0,0,43.592,48.091Z" transform="translate(-32.925 0)" fill="#7a7a7a"/><path d="M459.592,48.091l-.032.008a5.836,5.836,0,0,1,4.99,5.76,5.751,5.751,0,0,1-.919,3.123,5.825,5.825,0,0,0-1.034,3.13v46.481h1.953V60.112a5.825,5.825,0,0,1,1.034-3.13,5.751,5.751,0,0,0,.919-3.123A5.864,5.864,0,0,0,459.592,48.091Z" transform="translate(-347.363 0)" fill="#7a7a7a"/><path d="M133.188,307.906v19.531a3.906,3.906,0,0,1-3.906,3.906H19.906A3.906,3.906,0,0,0,16,335.25H133.188a3.906,3.906,0,0,0,3.906-3.906V304h0A3.906,3.906,0,0,0,133.188,307.906Z" transform="translate(-12.094 -193.5)" fill="#7a7a7a"/><path d="M117.3,176a1.944,1.944,0,0,0-1.224.431,5.93,5.93,0,0,1-3.673,1.522H94.851a5.93,5.93,0,0,1-3.673-1.522,1.953,1.953,0,0,0-2.746,2.746,5.93,5.93,0,0,1,1.522,3.673v10.727H117.3V182.851a5.928,5.928,0,0,1,1.522-3.673A1.953,1.953,0,0,0,117.3,176Z" transform="translate(-66.516 -96.75)" fill="#e2e4e6"/><path d="M325.3,176a1.944,1.944,0,0,0-1.224.431,5.93,5.93,0,0,1-3.673,1.522H302.851a5.93,5.93,0,0,1-3.673-1.522,1.953,1.953,0,0,0-2.746,2.746,5.93,5.93,0,0,1,1.522,3.673v10.727H325.3V182.851a5.928,5.928,0,0,1,1.522-3.673A1.953,1.953,0,0,0,325.3,176Z" transform="translate(-223.734 -96.75)" fill="#e2e4e6"/><path d="M331.344,184c-1.378,0-1.953,2.528-1.953,3.906v5.859a3.906,3.906,0,0,1-3.906,3.906H305.953A1.953,1.953,0,0,0,304,199.625h27.344V188.9a5.93,5.93,0,0,1,1.522-3.673C333.135,184.889,333.179,184,331.344,184Z" transform="translate(-229.781 -102.797)" fill="#d0d7da"/><path d="M123.344,184c-1.378,0-1.953,2.528-1.953,3.906v5.859a3.906,3.906,0,0,1-3.906,3.906H97.953A1.953,1.953,0,0,0,96,199.625h27.344V188.9a5.93,5.93,0,0,1,1.522-3.673C125.135,184.889,125.179,184,123.344,184Z" transform="translate(-72.563 -102.797)" fill="#d0d7da"/><path d="M157.75,257.734v-5.828A3.906,3.906,0,0,0,153.844,248H67.906A3.906,3.906,0,0,0,64,251.906v5.859Z" transform="translate(-48.375 -151.172)" fill="#c5c9cc"/><path d="M48,437.859a1.959,1.959,0,0,0,1.953,1.953H61.672a1.959,1.959,0,0,0,1.953-1.953V432H48Z" transform="translate(-36.281 -290.25)" fill="#7a7a7a"/><path d="M400,437.859a1.959,1.959,0,0,0,1.953,1.953h11.719a1.959,1.959,0,0,0,1.953-1.953V432H400Z" transform="translate(-302.344 -290.25)" fill="#7a7a7a"/></g></g></svg>