<svg width="34" height="21" viewBox="0 0 34 21" fill="none" xmlns="http://www.w3.org/2000/svg">
<path d="M10.0721 14.9038C8.41822 14.9038 7.07683 16.2452 7.07683 17.8942C7.07683 19.5481 8.41822 20.8894 10.0721 20.8894C11.7212 20.8894 13.0625 19.548 13.0625 17.8942C13.0625 16.2452 11.7212 14.9038 10.0721 14.9038ZM10.0721 19.3942C9.24517 19.3942 8.57211 18.7212 8.57211 17.8942C8.57211 17.0721 9.24517 16.399 10.0721 16.399C10.8942 16.399 11.5673 17.0721 11.5673 17.8942C11.5673 18.7212 10.8942 19.3942 10.0721 19.3942ZM7.49378 14.9051H0.790444C0.524944 14.9051 0.309722 15.1203 0.309722 15.3858V16.8445C0.309722 17.11 0.524944 17.3252 0.790444 17.3252H6.16344C6.30378 16.3627 6.78956 15.5124 7.49378 14.9051ZM25.7212 14.9038C24.0721 14.9038 22.7308 16.2452 22.7308 17.8942C22.7308 19.5481 24.0721 20.8894 25.7212 20.8894C27.375 20.8894 28.7115 19.548 28.7115 17.8942C28.7116 16.2452 27.375 14.9038 25.7212 14.9038ZM25.7212 19.3942C24.8942 19.3942 24.2259 18.7212 24.2259 17.8942C24.2259 17.0721 24.8942 16.399 25.7212 16.399C26.5481 16.399 27.2163 17.0721 27.2163 17.8942C27.2164 18.7212 26.5481 19.3942 25.7212 19.3942ZM33.5193 14.9038H32.351V8.37016C32.351 7.60578 32.1202 6.85578 31.6923 6.22111L28.7645 1.88461C28.0529 0.826889 26.8558 0.192278 25.577 0.192278H21.0386C20.5097 0.192278 20.077 0.620167 20.077 1.15383V14.9038H12.6491C13.351 15.5144 13.8366 16.3606 13.976 17.3269H21.8173C22.0914 15.4183 23.7356 13.9423 25.7212 13.9423C27.7067 13.9423 29.351 15.4182 29.6298 17.3269H33.5193C33.7886 17.3269 34 17.1105 34 16.8461V15.3846C34 15.1202 33.7884 14.9038 33.5193 14.9038ZM28.7307 7.0865H22.7404C22.4759 7.0865 22.2596 6.87494 22.2596 6.60572V3.28367C22.2596 3.01922 22.4761 2.80289 22.7404 2.80289H26.3894C26.5481 2.80289 26.6972 2.87978 26.7837 3.00478L29.1251 6.33167C29.3509 6.649 29.1202 7.0865 28.7307 7.0865ZM17.7884 13.9423H0.9615C0.4305 13.9423 0 13.5118 0 12.9808V8.65383C0 8.12278 0.4305 7.69228 0.9615 7.69228H17.7884C18.3195 7.69228 18.75 8.12278 18.75 8.65383V12.9808C18.75 13.5118 18.3195 13.9423 17.7884 13.9423ZM7.69233 6.25H0.9615C0.4305 6.25 0 5.81944 0 5.28844V0.961555C0 0.430499 0.4305 0 0.9615 0H7.69228C8.22333 0 8.65383 0.430499 8.65383 0.961555V5.28844C8.65389 5.81944 8.22339 6.25 7.69233 6.25ZM17.7884 6.25H11.0577C10.5267 6.25 10.0962 5.8195 10.0962 5.2885V0.961555C10.0962 0.430499 10.5267 5.5525e-05 11.0577 5.5525e-05H17.7885C18.3196 5.5525e-05 18.7501 0.430555 18.7501 0.961555V5.2885C18.75 5.81944 18.3195 6.25 17.7884 6.25Z" fill="#CB001B"/>
</svg>
