<svg width="34" height="34" viewBox="0 0 34 34" fill="none" xmlns="http://www.w3.org/2000/svg">
<g clip-path="url(#clip0)">
<path d="M30.5778 15.6565C29.5564 16.803 28.5559 18.0381 27.8575 19.7421C27.5397 20.5289 26.7841 21.0397 25.9346 21.0397C25.08 21.0397 24.3244 20.5289 24.0013 19.7369C23.1935 17.7566 21.9689 16.4069 20.7807 15.1041C20.4837 14.7758 20.1866 14.4475 19.8949 14.1088C19.8792 14.114 19.8687 14.1192 19.8532 14.1244C18.6963 14.4735 17.8051 16.0056 18.3419 17.2511C18.7067 18.1057 21.2654 17.9442 21.0466 19.7837C20.8642 21.2897 22.8339 21.6858 23.5322 21.6129C24.2306 21.5295 25.3041 22.7594 24.7621 23.3013C24.2254 23.8433 23.2091 23.8642 23.3655 25.2608C23.4071 25.6672 24.6371 25.6152 24.6371 26.2301C24.6371 26.8502 24.0014 27.5537 24.4911 28.2677C24.5954 28.4239 24.7048 28.5438 24.8195 28.6376C22.464 30.8055 19.3216 32.1343 15.877 32.1343C8.59696 32.1343 2.67701 26.2144 2.67701 18.9343C2.67701 16.7248 3.22424 14.6403 4.18829 12.8059C4.18307 15.1771 5.4494 17.1469 6.04346 17.7409C7.98202 19.6743 10.7909 19.0646 11.1504 20.6852C11.5152 22.3007 9.22224 22.3059 9.3734 23.5409C9.52968 24.7812 12.5157 25.1096 11.8487 26.2508C10.968 27.7672 12.4428 27.8767 12.0155 29.7474C11.7862 30.7689 13.261 30.9669 13.8082 30.1904C14.2251 29.5964 14.1417 28.8668 14.9807 27.9757C16.0073 26.8813 18.3889 26.7042 18.123 24.8958C17.6697 21.8942 14.7514 21.4252 13.4799 20.7216C12.0364 19.9296 12.3907 18.0274 12.078 17.1207C11.6403 15.8336 10.1551 17.4803 9.36296 16.7299C8.06018 15.5001 9.59746 13.7595 10.6918 13.796C13.0004 13.8689 13.7091 16.115 14.5585 16.0368C15.3871 15.9638 15.9239 14.8069 16.0697 14.1921C16.3772 12.8528 15.5486 13.4521 15.2151 12.7537C14.767 11.8209 16.7889 10.9298 17.5706 10.2419C17.6905 10.1377 17.779 10.0387 17.8259 9.94489C18.0605 9.48633 17.753 9.13716 17.2319 8.81927C16.1897 8.18866 14.2876 7.68844 14.199 6.70355C14.1469 6.099 15.3038 5.80722 16.6222 5.75511C16.841 5.76555 17.0547 5.78638 17.2736 5.80722C17.383 5.18705 17.5602 4.57733 17.7999 3.99372C17.1694 3.91033 16.5284 3.86861 15.877 3.86861C7.57029 3.86861 0.811401 10.6275 0.811401 18.9342C0.811346 27.2411 7.57029 34 15.877 34C24.1836 34 30.9426 27.2411 30.9426 18.9344C30.9426 17.8088 30.8175 16.7092 30.5778 15.6565ZM25.2257 0.0334954C20.9728 0.435495 18.0599 4.55644 18.8022 8.76338C19.556 13.0368 23.4961 14.3522 25.4514 19.1491C25.6276 19.5813 26.2362 19.5835 26.4124 19.1512C28.5799 13.8308 33.1887 12.7926 33.1887 7.25639C33.1887 3.01566 29.5509 -0.375338 25.2257 0.0334954ZM25.9323 11.0885C23.8159 11.0885 22.1001 9.37283 22.1001 7.25639C22.1001 5.14 23.8159 3.42433 25.9323 3.42433C28.0487 3.42433 29.7644 5.14 29.7644 7.25639C29.7644 9.37278 28.0486 11.0885 25.9323 11.0885Z" fill="#CB001B"/>
</g>
<defs>
<clipPath id="clip0">
<rect width="34" height="34" fill="white"/>
</clipPath>
</defs>
</svg>
