<?xml version="1.0" encoding="UTF-8" standalone="no"?><!DOCTYPE svg PUBLIC "-//W3C//DTD SVG 1.1//EN" "http://www.w3.org/Graphics/SVG/1.1/DTD/svg11.dtd"><svg width="100%" height="100%" viewBox="0 0 167 28" version="1.1" xmlns="http://www.w3.org/2000/svg" xmlns:xlink="http://www.w3.org/1999/xlink" xml:space="preserve" xmlns:serif="http://www.serif.com/" style="fill-rule:evenodd;clip-rule:evenodd;stroke-linejoin:round;stroke-miterlimit:1.41421;"><rect id="Artboard1" x="0" y="0" width="166.181" height="27.72" style="fill:none;"/><path d="M24.652,27.319l-3.714,0l-1.387,-16.099l-5.694,16.099l-2.385,0l-5.665,-16.099l-1.387,16.099l-3.729,0l1.676,-20.709l5.261,0l5.029,14.105l5.058,-14.105l5.275,0l1.662,20.709Z" style="fill:#06070e;fill-rule:nonzero;"/><path d="M55.161,27.608c-1.744,0 -3.464,-0.452 -5.16,-1.358l1.59,-3.122c1.041,0.713 2.096,1.07 3.165,1.07c1.927,0 2.891,-1.238 2.891,-3.714l0,-13.874l3.757,0l0,14.567c0,2.024 -0.568,3.601 -1.705,4.733c-1.137,1.132 -2.65,1.698 -4.538,1.698Z" style="fill:#06070e;fill-rule:nonzero;"/><path d="M78.515,9.933l-7.905,0l0,5.391l6.995,0l0,3.295l-6.995,0l0,5.362l7.905,0l0,3.338l-11.706,0l0,-20.709l11.706,0l0,3.323Z" style="fill:#06070e;fill-rule:nonzero;"/><path d="M89.759,27.594c-2.12,0 -3.89,-0.479 -5.311,-1.438c-1.421,-0.959 -2.305,-2.276 -2.652,-3.953l2.616,-0.621c0.241,1.175 0.852,2.1 1.835,2.775c0.983,0.674 2.182,1.011 3.599,1.011c0.472,0 0.92,-0.038 1.344,-0.115c0.424,-0.077 0.831,-0.205 1.221,-0.383c0.39,-0.179 0.725,-0.398 1.004,-0.658c0.28,-0.26 0.501,-0.592 0.665,-0.997c0.164,-0.405 0.241,-0.858 0.231,-1.359c-0.009,-0.346 -0.069,-0.667 -0.18,-0.961c-0.111,-0.293 -0.246,-0.546 -0.405,-0.758c-0.159,-0.212 -0.388,-0.417 -0.686,-0.615c-0.299,-0.197 -0.574,-0.361 -0.824,-0.491c-0.251,-0.13 -0.59,-0.267 -1.019,-0.412c-0.429,-0.144 -0.788,-0.258 -1.077,-0.339c-0.289,-0.082 -0.679,-0.191 -1.17,-0.326c-0.097,-0.029 -0.169,-0.048 -0.217,-0.057c-0.559,-0.145 -1.014,-0.27 -1.366,-0.376c-0.351,-0.106 -0.773,-0.253 -1.264,-0.441c-0.492,-0.188 -0.894,-0.373 -1.207,-0.556c-0.313,-0.183 -0.643,-0.415 -0.99,-0.694c-0.347,-0.279 -0.619,-0.581 -0.817,-0.903c-0.197,-0.323 -0.361,-0.706 -0.491,-1.149c-0.13,-0.443 -0.195,-0.925 -0.195,-1.445c0,-1.214 0.316,-2.255 0.947,-3.122c0.631,-0.867 1.445,-1.503 2.442,-1.908c0.997,-0.404 2.117,-0.607 3.36,-0.607c1.898,0 3.529,0.417 4.892,1.25c1.363,0.834 2.228,2.065 2.594,3.693l-2.514,0.636c-0.251,-1.108 -0.815,-1.942 -1.691,-2.5c-0.877,-0.559 -1.937,-0.839 -3.18,-0.839c-0.549,0 -1.069,0.063 -1.561,0.188c-0.491,0.125 -0.941,0.318 -1.351,0.578c-0.409,0.26 -0.734,0.614 -0.975,1.062c-0.241,0.449 -0.362,0.966 -0.362,1.554c0,0.308 0.049,0.595 0.145,0.86c0.096,0.265 0.217,0.494 0.361,0.686c0.145,0.193 0.352,0.381 0.622,0.564c0.269,0.183 0.522,0.332 0.758,0.448c0.236,0.116 0.552,0.239 0.947,0.369c0.395,0.13 0.732,0.236 1.012,0.318c0.279,0.081 0.65,0.18 1.112,0.296c1.821,0.482 3.127,0.915 3.917,1.301c1.763,0.867 2.77,2.114 3.02,3.743c0.039,0.279 0.058,0.573 0.058,0.881c0,0.993 -0.195,1.869 -0.585,2.63c-0.39,0.762 -0.925,1.369 -1.604,1.821c-0.68,0.453 -1.441,0.793 -2.284,1.019c-0.843,0.227 -1.751,0.34 -2.724,0.34Z" style="fill:#ac1511;fill-rule:nonzero;"/><path d="M109.544,6.971c1.195,0 2.257,0.282 3.187,0.845c0.929,0.564 1.642,1.318 2.139,2.262c0.496,0.944 0.744,1.99 0.744,3.136c0,1.773 -0.561,3.249 -1.684,4.43c-1.122,1.18 -2.584,1.77 -4.386,1.77l-5.116,0l0,7.905l-2.587,0l0,-20.348l7.703,0Zm-0.376,10.189c1.205,0 2.149,-0.364 2.833,-1.092c0.684,-0.727 1.026,-1.688 1.026,-2.883c0,-1.175 -0.342,-2.131 -1.026,-2.869c-0.684,-0.737 -1.628,-1.105 -2.833,-1.105l-4.74,0l0,7.949l4.74,0Z" style="fill:#ac1511;fill-rule:nonzero;"/><path d="M131.179,27.319l-1.749,-4.87l-9.206,0l-1.734,4.87l-2.703,0l7.501,-20.348l3.093,0l7.5,20.348l-2.702,0Zm-10.131,-7.153l7.573,0l-3.787,-10.594l-3.786,10.594Z" style="fill:#ac1511;fill-rule:nonzero;"/><path d="M151.614,6.971l2.572,0l0,20.348l-2.731,0l-10.969,-16.461l0,16.461l-2.544,0l0,-20.348l2.703,0l10.969,16.388l0,-16.388Z" style="fill:#ac1511;fill-rule:nonzero;"/><path d="M160.907,4.861l3.627,-4.712l1.33,0.969l-3.238,3.743l-1.719,0Zm-0.333,22.458l0,-20.348l2.587,0l0,20.348l-2.587,0Z" style="fill:#ac1511;fill-rule:nonzero;"/><path d="M39.468,14.834c-0.103,-0.082 -0.232,-0.122 -0.363,-0.113l-1.989,0l1.858,-2.075l0.174,-0.193l0.113,-0.136c0.031,-0.044 0.056,-0.091 0.075,-0.141c0.021,-0.054 0.032,-0.111 0.033,-0.169c0.013,-0.138 -0.055,-0.27 -0.174,-0.339c-0.155,-0.071 -0.324,-0.103 -0.494,-0.094l-2.333,0c-0.124,-0.009 -0.246,0.028 -0.344,0.103c-0.081,0.069 -0.126,0.171 -0.122,0.278c0,0.16 0.052,0.254 0.16,0.291c0.153,0.044 0.311,0.063 0.47,0.057l1.506,0c-0.063,0.088 -0.146,0.191 -0.25,0.31l-0.39,0.443l-0.508,0.564l-0.607,0.673c-0.212,0.235 -0.348,0.395 -0.414,0.47c-0.149,0.182 -0.131,0.448 0.042,0.607c0.125,0.101 0.283,0.151 0.443,0.141l2.747,0c0.131,0.01 0.262,-0.028 0.367,-0.108c0.08,-0.07 0.124,-0.171 0.122,-0.278c0.004,-0.11 -0.041,-0.217 -0.122,-0.291Z" style="fill-rule:nonzero;"/><path d="M44.798,16.607c-0.083,-0.066 -0.187,-0.098 -0.292,-0.089l-1.581,0l1.482,-1.656l0.141,-0.156l0.09,-0.108c0.025,-0.035 0.045,-0.073 0.061,-0.113c0.017,-0.043 0.027,-0.089 0.028,-0.136c0.012,-0.11 -0.041,-0.216 -0.136,-0.273c-0.124,-0.057 -0.26,-0.083 -0.395,-0.075l-1.845,0c-0.098,-0.006 -0.195,0.024 -0.272,0.085c-0.065,0.054 -0.102,0.136 -0.099,0.221c0,0.127 0.042,0.202 0.127,0.235c0.122,0.036 0.249,0.051 0.376,0.047l1.186,0c-0.052,0.07 -0.118,0.15 -0.198,0.249l-0.31,0.353l-0.405,0.47l-0.47,0.537c-0.17,0.188 -0.281,0.316 -0.334,0.385c-0.111,0.143 -0.097,0.345 0.033,0.471c0.097,0.068 0.215,0.099 0.334,0.089l2.192,0c0.104,0.009 0.208,-0.022 0.291,-0.084c0.063,-0.057 0.097,-0.138 0.094,-0.222c0.003,-0.087 -0.033,-0.171 -0.098,-0.23Z" style="fill-rule:nonzero;"/><path d="M48.933,11.972c-0.102,-0.081 -0.232,-0.122 -0.362,-0.113l-1.985,0l1.858,-2.074l0.169,-0.212l0.113,-0.136c0.031,-0.044 0.056,-0.091 0.075,-0.141c0.022,-0.054 0.033,-0.112 0.033,-0.17c0.013,-0.137 -0.055,-0.269 -0.174,-0.338c-0.16,-0.08 -0.338,-0.117 -0.517,-0.109l-2.305,0c-0.124,-0.008 -0.246,0.029 -0.344,0.104c-0.081,0.069 -0.126,0.171 -0.122,0.277c0,0.16 0.052,0.254 0.16,0.292c0.153,0.043 0.312,0.062 0.47,0.057l1.506,0c-0.063,0.087 -0.145,0.191 -0.245,0.31l-0.39,0.442l-0.508,0.565l-0.607,0.672c-0.212,0.236 -0.348,0.396 -0.414,0.471c-0.062,0.074 -0.096,0.167 -0.099,0.263c-0.006,0.13 0.045,0.256 0.141,0.344c0.124,0.093 0.278,0.138 0.433,0.127l2.747,0c0.131,0.01 0.262,-0.029 0.367,-0.109c0.08,-0.069 0.125,-0.171 0.122,-0.277c-0.008,-0.094 -0.052,-0.181 -0.122,-0.245Z" style="fill-rule:nonzero;"/><path d="M47.446,20.728c-0.12,-0.057 -0.259,-0.06 -0.382,-0.009l0.005,0c-5.1,2.109 -11.342,1.195 -13.451,-3.904c-1.07,-2.586 -0.607,-7.013 0.575,-9.55c0.111,-0.235 0.011,-0.515 -0.224,-0.626c-0.121,-0.057 -0.26,-0.06 -0.383,-0.009c-5.589,2.297 -8.259,8.689 -5.963,14.279c2.296,5.59 8.689,8.26 14.279,5.964c2.549,-1.047 4.609,-3.018 5.769,-5.519c0.111,-0.235 0.01,-0.515 -0.225,-0.626Z" style="fill-rule:nonzero;"/></svg>