<svg width="34" height="34" viewBox="0 0 34 34" fill="none" xmlns="http://www.w3.org/2000/svg">
<path d="M29.0164 4.98162C22.3742 -1.66054 11.6125 -1.66054 4.97736 4.98162C-1.41044 11.3694 -1.65068 21.587 4.26368 28.2645L4.44033 28.4059C3.79731 29.7908 2.69499 31.5008 0.942589 32.3629C0.363166 32.6455 0.497423 33.5076 1.13338 33.6065C3.0483 33.9033 5.79703 33.5712 8.36204 31.6351L8.39737 31.6633C14.9123 35.4932 23.4341 34.617 29.0305 29.0206C35.6585 22.3855 35.6585 11.6167 29.0164 4.98162ZM22.6003 24.2722C22.2258 24.6537 21.8301 25.007 21.4768 25.4027C20.961 25.9822 20.3109 26.1659 19.576 26.1235C18.502 26.067 17.5056 25.7066 16.5517 25.2402C14.4248 24.2086 12.6088 22.7741 11.0896 20.9652C9.96605 19.6297 9.04039 18.1741 8.42563 16.5277C8.12885 15.7292 7.91687 14.9166 7.98047 14.0545C8.02286 13.5246 8.22071 13.0723 8.60935 12.6978C9.03332 12.2951 9.42903 11.8782 9.84593 11.4683C10.39 10.9313 11.0684 10.9384 11.6125 11.4683C11.9516 11.8004 12.2767 12.1325 12.6088 12.4647C12.9338 12.7897 13.2589 13.1077 13.5769 13.4327C14.1421 14.0051 14.1421 14.6693 13.5769 15.2416C13.1741 15.6515 12.7713 16.0613 12.3544 16.457C12.2484 16.563 12.2343 16.6478 12.2908 16.7821C12.5593 17.4321 12.955 18.0116 13.3931 18.5486C14.2764 19.6368 15.2798 20.6048 16.481 21.3539C16.7354 21.5164 17.0181 21.6294 17.2866 21.7778C17.4208 21.8556 17.5198 21.8273 17.6257 21.7142C18.0285 21.2973 18.4454 20.8875 18.8553 20.4777C19.3993 19.9406 20.0777 19.9406 20.6147 20.4777C21.2789 21.1348 21.9361 21.792 22.5932 22.4562C23.1585 23.0356 23.1585 23.7139 22.6003 24.2722ZM16.3326 13.2914L16.5446 11.7792C18.0073 11.9842 19.3358 12.6484 20.3815 13.6942C21.3779 14.6905 22.028 15.9412 22.2611 17.3191L20.7561 17.5805C20.5723 16.5136 20.0706 15.5455 19.3004 14.7753C18.4878 13.9627 17.4632 13.4469 16.3326 13.2914ZM24.7202 17.3191C24.381 15.3406 23.4482 13.5458 22.028 12.1184C20.5299 10.6204 18.6291 9.67354 16.5305 9.37676L16.7425 7.86461C19.1662 8.20378 21.3708 9.29903 23.102 11.0373C24.7484 12.6837 25.8295 14.7682 26.2252 17.0576L24.7202 17.3191Z" fill="#CB001B"/>
</svg>
