<svg width="34" height="34" viewBox="0 0 34 34" fill="none" xmlns="http://www.w3.org/2000/svg">
<path d="M33.9881 10.1039C33.983 9.98149 33.9711 9.85733 33.9388 9.73998C33.9269 9.69746 33.9031 9.65664 33.8878 9.61412C33.8521 9.51718 33.8198 9.42193 33.7688 9.33349C33.7416 9.28757 33.7042 9.25015 33.6719 9.20593C33.6175 9.1294 33.5648 9.05116 33.4985 8.98483C33.4594 8.94741 33.4084 8.9168 33.3659 8.88108C33.2996 8.82666 33.2384 8.76713 33.1619 8.72121C33.1551 8.71611 33.1466 8.71611 33.1381 8.711C33.133 8.7093 33.1296 8.7042 33.1245 8.7008L17.8602 0.213874C17.3485 -0.0718583 16.7263 -0.0701574 16.2112 0.212173L0.8755 8.6991C0.8704 8.7042 0.8653 8.711 0.8568 8.71611C0.8517 8.71781 0.8449 8.71951 0.8398 8.72291C0.7803 8.75693 0.7361 8.80625 0.68 8.84707C0.6188 8.89299 0.5542 8.93381 0.4998 8.98653C0.4488 9.03926 0.4097 9.10048 0.3655 9.16001C0.3196 9.21954 0.2686 9.27226 0.2312 9.33689C0.187 9.41003 0.1632 9.49337 0.1309 9.5733C0.1071 9.62943 0.0765 9.68215 0.0612 9.74338C0.0289 9.85733 0.0186999 9.97979 0.0118999 10.1005C0.0101999 10.1295 0 10.155 0 10.1856V10.1873V10.189V23.7953C0 24.4127 0.3349 24.9824 0.8755 25.2818L16.1381 33.7636L16.1398 33.7653C16.1415 33.7653 16.1415 33.7653 16.1432 33.767L16.1772 33.7857C16.2503 33.8265 16.3302 33.8486 16.4067 33.8775C16.4611 33.8997 16.5138 33.9286 16.5716 33.9439C16.7093 33.9796 16.8555 34 17 34C17.1445 34 17.2907 33.9796 17.4318 33.9439C17.4879 33.9286 17.5406 33.8997 17.5967 33.8775C17.6732 33.8486 17.7531 33.8282 17.8262 33.7857L17.8602 33.767C17.8619 33.7653 17.8619 33.7653 17.8636 33.7653L17.8653 33.7636L33.1279 25.2818C33.6651 24.9824 34 24.4127 34 23.7953V10.189V10.1873V10.1856C34 10.1567 33.9898 10.1329 33.9881 10.1039ZM16.9524 16.7744L5.1986 10.1975L9.894 7.59869L21.5118 14.2403L16.9524 16.7744ZM17.034 3.64606L28.7997 10.189L24.9849 12.3099L13.3739 5.6717L17.034 3.64606ZM18.7 29.4096L18.7034 19.7508L23.8 16.8969V22.0945L27.2 20.3937V14.9937L30.6 13.0905V22.7935L18.7 29.4096Z" fill="#CB001B"/>
</svg>
