<?xml version="1.0" encoding="UTF-8" standalone="no"?><!DOCTYPE svg PUBLIC "-//W3C//DTD SVG 1.1//EN" "http://www.w3.org/Graphics/SVG/1.1/DTD/svg11.dtd"><svg width="100%" height="100%" viewBox="0 0 60 60" version="1.1" xmlns="http://www.w3.org/2000/svg" xmlns:xlink="http://www.w3.org/1999/xlink" xml:space="preserve" xmlns:serif="http://www.serif.com/" style="fill-rule:evenodd;clip-rule:evenodd;stroke-linejoin:round;stroke-miterlimit:1.41421;"><path d="M30,42.857c7.724,0.01 14.355,5.077 16.731,12.041c-4.781,3.221 -10.538,5.102 -16.731,5.102c-6.193,0 -11.95,-1.88 -16.731,-5.101c2.376,-6.964 9.007,-12.032 16.731,-12.042Zm-20.856,8.7c-5.637,-5.456 -9.144,-13.1 -9.144,-21.557c0,-16.557 13.443,-30 30,-30c16.557,0 30,13.443 30,30c0,8.458 -3.508,16.103 -9.147,21.559c-2.271,-5.265 -6.497,-9.603 -11.967,-11.935c3.161,-2.636 4.992,-6.546 4.992,-10.662c0,-7.614 -6.266,-13.881 -13.881,-13.881c-7.615,0 -13.881,6.267 -13.881,13.881c0,4.116 1.831,8.026 4.992,10.662c-5.468,2.333 -9.693,6.669 -11.964,11.933Zm12.023,-22.581c0,-4.846 3.987,-8.833 8.833,-8.833c4.846,0 8.833,3.987 8.833,8.833c0,4.846 -3.987,8.833 -8.833,8.833c-4.843,-0.005 -8.827,-3.989 -8.833,-8.833Z" style="fill:#fff;"/></svg>