<svg width="50" height="50" viewBox="0 0 50 50" fill="none" xmlns="http://www.w3.org/2000/svg">
<g clip-path="url(#clip0)">
<path d="M45.5618 39.473C45.3993 39.2269 45.2105 38.9957 45.0011 38.7863L31.2148 25.0001L43.1075 13.1074L44.1435 14.1435L48.2867 9.99996C50.5713 7.71534 50.5713 3.99832 48.2867 1.7137C46.002 -0.570909 42.2846 -0.570909 40 1.7137L35.8569 5.85683L36.893 6.89252L25.0003 18.7852L13.1073 6.89252L14.143 5.85683L9.99983 1.7137C7.71522 -0.570909 3.99819 -0.570909 1.71358 1.7137C-0.571031 3.99832 -0.571031 7.71534 1.71358 9.99996L5.85671 14.1435L6.89278 13.1074L18.7854 25.0001L4.99917 38.7863C4.78936 38.9961 4.60053 39.2273 4.43841 39.473L0.482584 45.4586C-0.281115 46.614 -0.12395 48.1643 0.856041 49.1443C1.83603 50.1243 3.38632 50.2815 4.54179 49.5178L10.527 45.5623C10.7731 45.3998 11.0042 45.211 11.214 45.0008L24.9999 31.2149L38.7862 45.0012C38.996 45.2106 39.2268 45.3994 39.4728 45.562L45.4585 49.5182C46.6139 50.2815 48.1642 50.1247 49.1442 49.1443C50.1242 48.1643 50.2814 46.614 49.5177 45.4586L45.5618 39.473ZM42.0718 3.78508C43.2139 2.64296 45.0728 2.64296 46.2149 3.78508C47.3574 4.92757 47.3574 6.78609 46.2149 7.92858L44.1435 9.99996L40.0004 5.85683L42.0718 3.78508ZM3.78534 7.92858C2.64284 6.78609 2.64284 4.92757 3.78534 3.78508C4.92745 2.64296 6.78596 2.64296 7.92846 3.78508L10.0002 5.85683L5.85671 9.99996L3.78534 7.92858ZM8.96415 11.0356L11.0359 8.96427L22.9286 20.8569L20.8572 22.9287L8.96415 11.0356ZM9.14229 42.9294C9.07134 43.0004 8.9939 43.0637 8.91189 43.1179L2.92665 47.0741L6.88248 41.0881C6.93664 41.0061 6.99997 40.9286 7.07092 40.8581L38.9643 8.96427L41.0361 11.036L9.14229 42.9294ZM41.0883 43.1179C41.006 43.0637 40.9285 43.0004 40.8576 42.9294L27.0717 29.1436L29.1431 27.0718L42.9293 40.8581C42.9999 40.9286 43.0632 41.0061 43.1178 41.0885L47.0736 47.0737L41.0883 43.1179Z" fill="#8D8D8D"/>
</g>
<defs>
<clipPath id="clip0">
<rect width="50" height="50" fill="white"/>
</clipPath>
</defs>
</svg>
