<svg width="50" height="50" viewBox="0 0 50 50" fill="none" xmlns="http://www.w3.org/2000/svg">
<g clip-path="url(#clip0)">
<path d="M6.17981 50H43.8202L46.7499 32.3242H50V29.3945H43.2762C44.0258 28.4882 44.6789 27.5024 45.2129 26.4591C46.3642 24.2096 46.9727 21.6789 46.9727 19.1406C46.9727 10.2558 39.7442 3.02734 30.8594 3.02734C25.9796 3.02734 21.3543 5.26352 18.3029 9.05342C17.6212 8.94432 16.9228 8.88672 16.2109 8.88672C15.7448 8.88672 15.2847 8.91151 14.8308 8.95882L13.7527 5.12543C14.3612 4.58832 14.7461 3.80325 14.7461 2.92969C14.7461 1.31416 13.4319 0 11.8164 0C10.2009 0 8.88672 1.31416 8.88672 2.92969C8.88672 4.21448 9.7187 5.30815 10.8715 5.70221L11.9648 9.58862C11.1824 9.85527 10.4328 10.1944 9.72404 10.5968L5.76248 6.70471C5.82542 6.46591 5.85938 6.21529 5.85938 5.95703C5.85938 4.34151 4.54521 3.02734 2.92969 3.02734C1.31416 3.02734 0 4.34151 0 5.95703C0 7.57256 1.31416 8.88672 2.92969 8.88672C3.19557 8.88672 3.45306 8.85048 3.69835 8.78372L7.32155 12.3432C4.68407 14.7556 3.02734 18.2228 3.02734 22.0703C3.02734 24.7013 3.81584 27.2461 5.25093 29.3945H0V32.3242H3.25012L6.17981 50ZM20.8588 12.9318C21.735 13.3793 22.5388 13.9492 23.2475 14.6191C19.9448 19.305 14.6561 22.0703 8.88672 22.0703C7.90367 22.0703 6.92368 21.9872 5.96008 21.8254C5.98373 20.8202 6.15311 19.8509 6.44722 18.9369C7.2506 19.0716 8.06694 19.1406 8.88672 19.1406C13.6562 19.1406 18.1305 16.7908 20.8588 12.9318ZM34.8984 29.3945H27.1706C28.2925 27.7153 29.0188 25.7942 29.2828 23.7785L34.8984 29.3945ZM7.19109 38.1836H23.5352V41.1133H7.6767L7.19109 38.1836ZM33.7891 44.043V47.0703H16.2109V44.043H33.7891ZM26.4648 41.1133V38.1836H42.8089L42.3233 41.1133H26.4648ZM16.2109 35.2539V32.3242H33.7891V35.2539H16.2109ZM23.3868 29.3945H17.5518C20.7153 28.2921 23.6526 26.5892 26.2047 24.3599C25.7687 26.2604 24.7967 28.0121 23.3868 29.3945ZM8.88672 25C12.4477 25 15.9584 24.0685 19.0392 22.3064C21.3947 20.9587 23.4665 19.1467 25.1228 17.0033C25.676 17.9726 26.0754 19.0403 26.2882 20.1729C21.8349 25.1129 15.5445 27.9297 8.88672 27.9297C8.51822 27.9297 8.14781 27.9202 7.77855 27.9026C7.13234 26.968 6.64635 25.9327 6.33965 24.8402C7.18269 24.9454 8.03375 25 8.88672 25ZM13.2812 32.3242V35.2539H6.70547L6.21986 32.3242H13.2812ZM8.16193 44.043H13.2812V47.0703H8.66394L8.16193 44.043ZM36.7188 47.0703V44.043H41.8377L41.3361 47.0703H36.7188ZM43.2945 35.2539H36.7188V32.3242H43.7801L43.2945 35.2539ZM43.7927 21.7159C43.5795 22.7997 43.2323 23.8434 42.7612 24.8276L25.1835 7.24983C26.1688 6.77834 27.2121 6.42967 28.2902 6.21376L43.7927 21.7159ZM43.9697 17.7498L32.2502 6.03027C38.4109 6.67953 43.3205 11.5891 43.9697 17.7498ZM22.6379 8.84781L41.1594 27.3693C40.567 28.1055 39.8903 28.7849 39.1346 29.3945H39.0415L29.1409 19.4939C28.2867 15.1993 25.3403 11.6501 21.4123 9.95712C21.7987 9.56039 22.2084 9.19037 22.6379 8.84781ZM17.9173 11.9591C15.7097 14.6191 12.3978 16.2109 8.88672 16.2109C8.53462 16.2109 8.18329 16.1942 7.83424 16.1633C9.69276 13.5353 12.7548 11.8164 16.2109 11.8164C16.7923 11.8164 17.3622 11.866 17.9173 11.9591Z" fill="#8D8D8D"/>
</g>
<defs>
<clipPath id="clip0">
<rect width="50" height="50" fill="white"/>
</clipPath>
</defs>
</svg>
