<svg width="50" height="50" viewBox="0 0 50 50" fill="none" xmlns="http://www.w3.org/2000/svg">
<g clip-path="url(#clip0)">
<path d="M48.1158 21.1503C45.8892 20.2267 43.3265 21.2868 42.4029 23.5131L37.2661 35.896C37.1169 36.2557 36.8369 36.5357 36.4772 36.6845C36.1174 36.8333 35.7211 36.8329 35.3618 36.6837C34.6209 36.3766 34.2677 35.5256 34.5717 34.7844L40.0779 21.8522L45.6336 17.8342C47.9503 16.1587 49.4094 13.5636 49.6367 10.714C49.8641 7.86444 48.8353 5.07056 46.8139 3.04953C44.7924 1.02813 41.9993 -0.000697106 39.149 0.226277C36.299 0.454015 33.7043 1.91276 32.0289 4.22942L24.1092 15.1803L14.9852 24.3043L4.03432 32.224C1.71765 33.899 0.258911 36.4945 0.0311731 39.3441C-0.196183 42.1937 0.833022 44.9875 2.85443 47.009C4.69083 48.8457 7.16504 49.8627 9.73958 49.8627C9.9986 49.8627 10.2588 49.8524 10.5189 49.8318C13.3685 49.6041 15.964 48.1454 17.6391 45.8287L25.5587 34.8778L34.6824 25.7542L35.5018 25.1614L31.8873 33.6503L31.882 33.6625C30.9585 35.8891 32.0186 38.4518 34.2448 39.3754C34.785 39.5993 35.3526 39.7114 35.9198 39.7114C36.4859 39.7114 37.052 39.6001 37.5907 39.3773C38.6699 38.931 39.5102 38.091 39.9577 37.0125L45.0946 24.6297C45.4024 23.8873 46.2569 23.5341 46.9993 23.8419L48.8837 24.6236L50.0003 21.9323L48.1158 21.1503ZM6.85414 37.423C7.40269 37.9716 8.14198 38.2756 8.91103 38.2756C8.98846 38.2756 9.06628 38.2725 9.14372 38.2664C9.99516 38.1985 10.7703 37.7625 11.2708 37.0705L17.2526 28.7964L18.8365 30.3807L11.6794 40.2627C11.151 40.9932 10.3328 41.4532 9.4344 41.5246C8.53604 41.5963 7.65523 41.272 7.02161 40.6388L3.58342 37.1735C3.89622 36.5185 4.31279 35.9162 4.82014 35.3886L6.85414 37.423ZM7.13223 33.5797L13.5619 28.93L8.91484 35.3623L7.13223 33.5797ZM17.9938 25.4166L20.8026 22.6079L27.2551 29.0604L24.4464 31.8692L17.9938 25.4166ZM22.8633 20.5472L25.2215 18.1889L31.6741 24.6415L29.3158 26.9997L22.8633 20.5472ZM42.8138 12.6351C42.2099 12.0312 41.3749 11.7238 40.5242 11.7917C39.6727 11.86 38.8976 12.2956 38.3967 12.988L32.4183 21.2643L30.8478 19.6938L37.9889 9.79544C38.5169 9.06493 39.3351 8.60488 40.2335 8.53316C41.1319 8.46144 42.0131 8.78608 42.649 9.42237L46.0906 12.8712C45.777 13.5312 45.3582 14.1385 44.8478 14.6691L42.8138 12.6351ZM40.7534 14.6954L42.5361 16.478L36.1136 21.1224L40.7534 14.6954ZM34.3902 5.93688C35.5643 4.31334 37.3835 3.29062 39.3809 3.13117C41.3779 2.9721 43.3364 3.69307 44.7532 5.10985C45.9094 6.26609 46.6018 7.78281 46.7311 9.38727L44.7108 7.36281C43.4691 6.12075 41.7521 5.48865 40.002 5.62865C38.2514 5.76827 36.6568 6.66434 35.6265 8.08913L28.7608 17.6064L27.13 15.976L34.3902 5.93688ZM15.2778 44.1212C14.1036 45.7448 12.2844 46.7675 10.2874 46.9269C8.29076 47.086 6.33153 46.365 4.91475 44.9483C3.75546 43.789 3.06271 42.2673 2.93607 40.6586L4.95709 42.6953C6.08548 43.8237 7.60564 44.4485 9.18721 44.4485C9.34628 44.4485 9.50612 44.442 9.66595 44.4295C11.4165 44.2898 13.0111 43.3934 14.0399 41.9713L20.9231 32.4673L22.5379 34.0821L15.2778 44.1212Z" fill="#8D8D8D"/>
</g>
<defs>
<clipPath id="clip0">
<rect width="50" height="50" fill="white"/>
</clipPath>
</defs>
</svg>
