<svg width="50" height="50" viewBox="0 0 50 50" fill="none" xmlns="http://www.w3.org/2000/svg">
<g clip-path="url(#clip0)">
<path d="M48.4375 47.0703H48.3356V33.8604C48.3356 33.2722 47.9836 32.7412 47.4419 32.5115L43.9415 31.0299V21.4844C43.9415 20.6753 43.2854 20.0195 42.4767 20.0195H41.0156V7.32422C41.0156 6.51512 40.3599 5.85938 39.5508 5.85938H33.6914C32.8823 5.85938 32.2266 6.51512 32.2266 7.32422V20.0195H29.2969V7.32422C29.2969 6.51512 28.6411 5.85938 27.832 5.85938H26.3672V4.39453C26.3672 3.58696 27.0245 2.92969 27.832 2.92969H37.0117C37.8208 2.92969 38.4766 2.27394 38.4766 1.46484C38.4766 0.655746 37.8208 0 37.0117 0H27.832C25.4089 0 23.4375 1.97144 23.4375 4.39453V5.85938H21.9727C21.1636 5.85938 20.5078 6.51512 20.5078 7.32422V20.0195H17.5781V7.32422C17.5781 6.51512 16.9224 5.85938 16.1133 5.85938H14.6484V4.39453C14.6484 3.58696 15.3057 2.92969 16.1133 2.92969H18.457C19.2661 2.92969 19.9219 2.27394 19.9219 1.46484C19.9219 0.655746 19.2661 0 18.457 0H16.1133C13.6902 0 11.7188 1.97144 11.7188 4.39453V5.85938H10.2539C9.44481 5.85938 8.78906 6.51512 8.78906 7.32422V20.0195H7.32002C6.51131 20.0195 5.85518 20.6753 5.85518 21.4844V28.849L3.49655 27.8503C3.04413 27.6588 2.52609 27.7069 2.11639 27.9781C1.7067 28.2497 1.46065 28.7083 1.46065 29.1992V47.0707C0.653458 47.073 0 47.7276 0 48.5352C0 49.3443 0.655746 50 1.46484 50H48.4375C49.2466 50 49.9023 49.3443 49.9023 48.5352C49.9023 47.7261 49.2466 47.0703 48.4375 47.0703ZM38.0859 8.78906V11.7188H35.1562V8.78906H38.0859ZM35.1562 14.6484H38.0859V20.0195H35.1562V14.6484ZM26.3672 8.78906V11.7188H23.4375V8.78906H26.3672ZM23.4375 14.6484H26.3672V20.0195H23.4375V14.6484ZM14.6484 8.78906V11.7188H11.7188V8.78906H14.6484ZM11.7188 14.6484H14.6484V20.0195H11.7188V14.6484ZM8.78487 22.9492H10.2528H10.2539H10.2551H16.1125H16.1133H16.1144H41.0118V29.7897L36.4307 27.8503C35.9783 27.6588 35.4603 27.7069 35.0506 27.9781C34.6413 28.2494 34.3948 28.7079 34.3948 29.1992V31.6498L25.4196 27.8503C24.9672 27.6588 24.4492 27.7069 24.0395 27.9781C23.6301 28.2494 23.3837 28.7079 23.3837 29.1992V31.6498L14.4085 27.8503C13.9561 27.6588 13.438 27.7069 13.0283 27.9781C12.619 28.2494 12.3726 28.7079 12.3726 29.1992V31.6078L8.78525 30.0892V22.9492H8.78487ZM4.39034 47.0703V31.4102L13.2664 35.1677C13.7188 35.3592 14.2368 35.3111 14.6465 35.0399C15.0562 34.7683 15.3023 34.3098 15.3023 33.8188V31.4102L24.2775 35.2097C24.7299 35.4012 25.248 35.3531 25.6577 35.0819C26.067 34.8103 26.3134 34.3517 26.3134 33.8608V31.4102L35.2886 35.2097C35.741 35.4012 36.2595 35.3531 36.6688 35.0819C37.0785 34.8103 37.3245 34.3517 37.3245 33.8608V31.4102L45.406 34.8312V47.0703H4.39034Z" fill="#8D8D8D"/>
<path d="M42.7734 2.92969H44.3359C45.1447 2.92969 45.8008 2.27394 45.8008 1.46484C45.8008 0.655746 45.1447 0 44.3359 0H42.7734C41.9643 0 41.3086 0.655746 41.3086 1.46484C41.3086 2.27394 41.9643 2.92969 42.7734 2.92969Z" fill="#8D8D8D"/>
<path d="M13.1815 39.7461H10.2488C9.43968 39.7461 8.78394 40.4018 8.78394 41.2109C8.78394 42.02 9.43968 42.6758 10.2488 42.6758H13.1815C13.9902 42.6758 14.6464 42.02 14.6464 41.2109C14.6464 40.4018 13.9902 39.7461 13.1815 39.7461Z" fill="#8D8D8D"/>
<path d="M21.9738 39.7461H19.041C18.2319 39.7461 17.5762 40.4018 17.5762 41.2109C17.5762 42.02 18.2319 42.6758 19.041 42.6758H21.9738C22.7829 42.6758 23.4386 42.02 23.4386 41.2109C23.4386 40.4018 22.7829 39.7461 21.9738 39.7461Z" fill="#8D8D8D"/>
<path d="M30.7628 39.7461H27.8301C27.021 39.7461 26.3652 40.4018 26.3652 41.2109C26.3652 42.02 27.021 42.6758 27.8301 42.6758H30.7628C31.5719 42.6758 32.2277 42.02 32.2277 41.2109C32.2277 40.4018 31.5719 39.7461 30.7628 39.7461Z" fill="#8D8D8D"/>
<path d="M39.548 39.7461H36.6152C35.8065 39.7461 35.1504 40.4018 35.1504 41.2109C35.1504 42.02 35.8065 42.6758 36.6152 42.6758H39.548C40.3571 42.6758 41.0128 42.02 41.0128 41.2109C41.0128 40.4018 40.3571 39.7461 39.548 39.7461Z" fill="#8D8D8D"/>
</g>
<defs>
<clipPath id="clip0">
<rect width="50" height="50" fill="white"/>
</clipPath>
</defs>
</svg>
