<svg width="60" height="60" viewBox="0 0 60 60" fill="none" xmlns="http://www.w3.org/2000/svg">
<g clip-path="url(#clip0)">
<path d="M12.1873 24.3287C12.1873 26.8725 16.4994 28.0316 20.5058 28.0316C24.5126 28.0316 28.8243 26.873 28.8243 24.3287C28.8243 21.7849 24.5126 20.6263 20.5058 20.6263C16.4994 20.6263 12.1873 21.7849 12.1873 24.3287ZM26.421 24.3287C26.014 24.786 24.0237 25.6727 20.5062 25.6727C16.9887 25.6727 14.9979 24.7865 14.5914 24.3287C14.9979 23.8714 16.9887 22.9852 20.5062 22.9852C24.0237 22.9852 26.014 23.8714 26.421 24.3287Z" fill="#8D8D8D"/>
<path d="M59.2801 23.3002C58.9079 23.0914 58.452 23.1001 58.088 23.3226C54.4671 25.5377 50.4379 26.2203 46.1115 25.3519C43.7188 24.8717 41.8845 24.0234 41.0546 23.5922C40.7708 22.1974 39.5893 20.4396 36.0476 18.9052C33.1518 17.6509 29.1349 16.7743 24.7367 16.4369C23.227 16.3197 23.0443 18.6731 24.5563 18.7889C28.7 19.1066 32.4482 19.9164 35.1101 21.0699C37.4017 22.0624 38.7699 23.2809 38.7699 24.3288C38.7699 26.7059 31.8215 30.0211 20.506 30.0211C9.19008 30.0215 2.24167 26.7059 2.24167 24.3288C2.24167 22.2899 7.15532 19.6953 15.3781 18.8832C16.8851 18.7344 16.6558 16.3875 15.1461 16.5358C10.9525 16.9501 7.30547 17.8258 4.59825 19.0681C0.700838 20.8571 -0.117188 22.9166 -0.117188 24.3288V35.8026C-0.117188 37.4817 1.00708 39.8804 6.3643 41.7737C10.1596 43.1154 15.1818 43.8538 20.5056 43.8538C25.8298 43.8538 30.852 43.1154 34.6473 41.7737C38.151 40.5355 39.8434 39.0811 40.5959 37.7532C41.4932 38.2164 42.422 38.6051 43.3769 38.9191C43.4565 38.9557 43.5412 38.9841 43.6295 39.0019C45.5261 39.597 47.5219 39.8992 49.5782 39.8992C52.8247 39.8992 56.3499 39.2304 59.2508 37.7106C59.6394 37.5069 59.8829 37.1045 59.8829 36.666V24.3288C59.8829 23.9021 59.6527 23.5085 59.2801 23.3002C58.9079 23.0914 59.6527 23.5085 59.2801 23.3002ZM32.3109 40.0415V39.0212C32.3109 37.5069 29.952 37.5046 29.952 39.0212V40.6137C27.5986 41.0948 24.8232 41.4176 21.6852 41.4826V38.6673C21.6852 37.153 19.3264 37.1507 19.3264 38.6673V41.4826C15.9691 41.413 13.0266 41.0486 10.5725 40.5103V38.9031C10.5725 37.3888 8.21367 37.3865 8.21367 38.9031V39.8973C4.37943 38.7273 2.24167 37.121 2.24167 35.8026V28.2381C2.88575 28.7142 3.69599 29.1856 4.70445 29.6384V33.8933C4.70445 35.408 7.06331 35.4103 7.06331 33.8933V30.5356C9.12599 31.1998 11.5105 31.696 14.0827 32.0059V35.9853C14.0827 37.4996 16.4415 37.5019 16.4415 35.9853V32.2334C17.7654 32.33 19.1254 32.3804 20.5056 32.3804C21.9663 32.3804 23.4041 32.3245 24.7999 32.216V35.907C24.7999 37.4213 27.1587 37.4236 27.1587 35.907V31.9776C29.6888 31.6608 32.0302 31.1623 34.0568 30.5003V33.7157C34.0568 35.2304 36.4156 35.2327 36.4156 33.7157V29.5903C37.3728 29.1536 38.1455 28.6995 38.7663 28.2408L38.7589 35.9587C38.5923 37.3014 36.2962 38.9063 32.3109 40.0415ZM50.3747 37.5266V36.075C50.3747 34.5603 48.0158 34.5584 48.0158 36.075V37.4849C46.9996 37.4002 46.0085 37.2281 45.044 36.9699V36.0745C45.044 35.4231 44.5158 34.8953 43.8644 34.8953C43.213 34.8953 42.6852 35.4231 42.6852 36.0745V36.1423C42.1569 35.9107 41.6378 35.6511 41.1288 35.3632V26.2409C41.576 26.4368 42.0983 26.646 42.6852 26.8515V28.4725C42.6852 29.9872 45.044 29.989 45.044 28.4725V27.5336L48.0158 27.9996V29.3939C48.0158 30.9087 50.3747 30.9105 50.3747 29.3939V28.0513C51.5319 28.006 52.6713 27.8549 53.785 27.6V28.6876C53.785 30.2019 56.1435 30.2042 56.1435 28.6876V26.89C56.6099 26.7142 57.0704 26.5192 57.5241 26.3049V35.9107C57.1844 36.0553 56.717 36.2407 56.1435 36.4339V36.075C56.1435 35.4236 55.6157 34.8953 54.9642 34.8953C54.3129 34.8953 53.785 35.4236 53.785 36.075V37.0825L50.3747 37.5266Z" fill="#8D8D8D"/>
<path d="M19.9683 18.5307C20.6092 18.5307 21.1475 17.9924 21.1475 17.3511C21.1475 16.7102 20.6087 16.1719 19.9683 16.1719C19.3453 16.1719 18.8184 16.6791 18.7909 17.2998C18.7616 17.9599 19.3059 18.5307 19.9683 18.5307Z" fill="#8D8D8D"/>
</g>
<defs>
<clipPath id="clip0">
<rect width="60" height="60" fill="white"/>
</clipPath>
</defs>
</svg>
