<svg width="50" height="50" viewBox="0 0 50 50" fill="none" xmlns="http://www.w3.org/2000/svg">
<path d="M45.3987 40.794H32.7843C39.3185 37.0094 43.7241 29.9408 43.7241 21.8616C43.7241 9.80721 33.9165 0 21.862 0C9.80721 0 0 9.80721 0 21.8616C0 33.9165 9.80721 43.7237 21.862 43.7237H45.3987C46.3203 43.7237 47.0703 44.4736 47.0703 45.3983C47.0703 46.3219 46.323 47.0699 45.3987 47.0699H25C24.1909 47.0699 23.5352 47.7257 23.5352 48.5348C23.5352 49.3439 24.1909 49.9996 25 49.9996H45.3987C47.9145 49.9996 50 47.9691 50 45.3953C50 42.8581 47.9359 40.794 45.3987 40.794ZM21.862 40.794C21.0426 40.794 20.2351 40.7413 19.4427 40.6399L35.45 31.3984L37.4699 32.5645C34.0538 37.5309 28.3321 40.794 21.862 40.794ZM11.2438 37.5282L28.656 27.4757L32.5203 29.707L15.3294 39.632C13.876 39.0961 12.5057 38.3862 11.2438 37.5282ZM9.73892 7.33223C10.915 6.34918 12.2116 5.50575 13.6032 4.82826V24.9386L9.73892 27.1698V7.33223ZM16.5329 3.69453C17.7734 3.32985 19.0659 3.088 20.3972 2.98576V21.0159L16.5329 23.2471V3.69453ZM40.7944 21.8616C40.7944 22.3209 40.7768 22.776 40.7448 23.2273L23.3269 13.171V8.70895L40.5178 18.634C40.699 19.6835 40.7944 20.7615 40.7944 21.8616ZM23.3269 16.5539L40.2603 26.3302C39.9471 27.6196 39.5023 28.8582 38.9397 30.0301L23.3269 21.0159V16.5539ZM39.3314 14.5664L23.3269 5.32608V2.98576C30.5489 3.54118 36.6489 8.16689 39.3314 14.5664ZM6.80923 10.3939V28.8612L4.78439 30.0301C3.59612 27.5558 2.92969 24.7852 2.92969 21.8616C2.92969 17.5541 4.37698 13.5788 6.80923 10.3939ZM6.2542 32.5645L21.862 23.5531L25.7263 25.7843L8.80165 35.5556C7.85332 34.6504 6.99921 33.6479 6.2542 32.5645Z" fill="#8D8D8D"/>
</svg>
