<svg width="50" height="50" viewBox="0 0 50 50" fill="none" xmlns="http://www.w3.org/2000/svg">
<path d="M42.7835 13.3327H31.6103C32.7875 11.9221 33.4974 10.1082 33.4974 8.13141C33.4974 3.64761 29.8498 0 25.3664 0C20.8826 0 17.235 3.64761 17.235 8.13141C17.235 10.1082 17.9449 11.9221 19.1221 13.3327H7.94885L1 50H49.7324L42.7835 13.3327ZM25.3664 2.92969C28.2343 2.92969 30.5677 5.26314 30.5677 8.13141C30.5677 10.9993 28.2343 13.3327 25.3664 13.3327C22.4981 13.3327 20.1647 10.9993 20.1647 8.13141C20.1647 5.26314 22.4981 2.92969 25.3664 2.92969ZM10.3754 16.2624H40.357L46.1954 47.0703H4.53699L10.3754 16.2624Z" fill="#8D8D8D"/>
<path d="M25.3846 33.3347H28.542V34.6188C28.2883 34.8038 27.9427 34.9854 27.5113 35.1597C26.9864 35.3722 26.4409 35.4797 25.8908 35.4797C25.261 35.4797 24.6582 35.339 24.0986 35.0613C23.5592 34.7939 23.1587 34.3941 22.8749 33.8387C22.5819 33.2661 22.4335 32.5317 22.4335 31.6563C22.4335 30.9471 22.5594 30.2822 22.8062 29.6822C22.9458 29.3484 23.1446 29.0375 23.3971 28.7571C23.6378 28.4901 23.9655 28.2688 24.3702 28.0998C24.7826 27.9278 25.2865 27.8404 25.8687 27.8404C26.3428 27.8404 26.7773 27.9224 27.1599 28.0842C27.5239 28.2379 27.8031 28.4397 27.9896 28.6835C28.1918 28.9474 28.3669 29.3282 28.5103 29.8153L28.6446 30.2711L30.8445 29.6677L30.7259 29.2065C30.5241 28.4206 30.2205 27.7687 29.823 27.2678C29.4152 26.754 28.8517 26.3504 28.1476 26.0681C27.4655 25.7946 26.6964 25.6561 25.8614 25.6561C24.7162 25.6561 23.6855 25.8972 22.7978 26.3725C21.8892 26.8593 21.1842 27.6112 20.7039 28.6072C20.2366 29.5753 20.0001 30.6305 20.0001 31.7444C20.0001 32.872 20.2397 33.9104 20.7131 34.8301C21.1972 35.7716 21.9231 36.5005 22.8714 36.9972C23.7996 37.4836 24.8425 37.7304 25.9713 37.7304C26.8078 37.7304 27.6345 37.5782 28.4283 37.2776C29.2145 36.9804 29.9855 36.5326 30.7198 35.947L30.9025 35.8017V31.0982L25.3846 31.1069V33.3347Z" fill="#8D8D8D"/>
</svg>
