<svg width="50" height="50" viewBox="0 0 50 50" fill="none" xmlns="http://www.w3.org/2000/svg">
<path d="M42.3695 13.3327H31.1962C32.3734 11.9221 33.0833 10.1082 33.0833 8.13141C33.0833 3.64761 29.4357 0 24.9523 0C20.4685 0 16.8209 3.64761 16.8209 8.13141C16.8209 10.1082 17.5308 11.9221 18.708 13.3327H7.53479L0.585938 50H49.3183L42.3695 13.3327ZM24.9523 2.92969C27.8202 2.92969 30.1537 5.26314 30.1537 8.13141C30.1537 10.9993 27.8202 13.3327 24.9523 13.3327C22.084 13.3327 19.7506 10.9993 19.7506 8.13141C19.7506 5.26314 22.084 2.92969 24.9523 2.92969ZM9.96132 16.2624H39.9429L45.7813 47.0703H4.12292L9.96132 16.2624Z" fill="#8D8D8D"/>
<path d="M25.0115 25.8389H21.6862L17.0372 30.4814V25.8389H14.6477V37.5469H17.0372V33.5453L18.2423 32.3704L21.8842 37.5469H24.9688L19.9486 30.7285L25.0115 25.8389Z" fill="#8D8D8D"/>
<path d="M29.7391 33.3347H32.8965V34.6188C32.6428 34.8038 32.2972 34.9854 31.8658 35.1597C31.3409 35.3722 30.7954 35.4797 30.2453 35.4797C29.6155 35.4797 29.0127 35.339 28.4531 35.0613C27.9137 34.7939 27.5132 34.3941 27.2294 33.8387C26.9364 33.2661 26.788 32.5317 26.788 31.6563C26.788 30.9471 26.9139 30.2822 27.1607 29.6822C27.3003 29.3484 27.4991 29.0375 27.7516 28.7571C27.9923 28.4901 28.32 28.2688 28.7247 28.0998C29.1371 27.9278 29.641 27.8404 30.2231 27.8404C30.6973 27.8404 31.1318 27.9224 31.5144 28.0842C31.8783 28.2379 32.1576 28.4397 32.3441 28.6835C32.5463 28.9474 32.7214 29.3282 32.8648 29.8153L32.9991 30.2711L35.199 29.6677L35.0804 29.2065C34.8786 28.4206 34.575 27.7687 34.1775 27.2678C33.7697 26.754 33.2062 26.3504 32.502 26.0681C31.82 25.7946 31.0509 25.6561 30.2159 25.6561C29.0707 25.6561 28.04 25.8972 27.1523 26.3725C26.2437 26.8593 25.5387 27.6112 25.0584 28.6072C24.5911 29.5753 24.3546 30.6305 24.3546 31.7444C24.3546 32.872 24.5942 33.9104 25.0676 34.8301C25.5517 35.7716 26.2776 36.5005 27.2259 36.9972C28.1541 37.4836 29.197 37.7304 30.3258 37.7304C31.1623 37.7304 31.989 37.5782 32.7828 37.2776C33.569 36.9804 34.34 36.5326 35.0743 35.947L35.257 35.8017V31.0982L29.7391 31.1069V33.3347Z" fill="#8D8D8D"/>
</svg>
